<svg xmlns="http://www.w3.org/2000/svg" viewBox="0 0 256 256">
  <path fill="#3726A6" d="M248.764 150.343c-3.82-3.203-8.699-4.313-13.245-3.454-1.751-1.582-3.88-2.801-6.303-3.495l-55.274-15.836c-2.486-.712-5.003-.791-7.381-.337-1.775-1.642-3.948-2.907-6.432-3.62l-1.728-.496c-3.966-1.138-8.012-.672-11.444 1.012-4.26-2.741-9.004-4.834-14.114-6.125-.259-1.077-.625-2.111-1.09-3.09 5.912-2.958 10.581-8.33 12.427-15.212l3.721-13.875c7.999-29.833-38.291-42.214-46.287-12.392l-3.721 13.875c-2.428 9.054.682 18.282 7.248 24.109-2.164 2.545-3.542 5.775-3.764 9.32-2.248 1.013-4.41 2.197-6.469 3.536-.127-.123-.254-.247-.387-.367l-1.336-1.202c-1.923-1.729-4.15-2.902-6.487-3.537-.876-2.255-2.275-4.346-4.197-6.074L39.768 74.634c-.25-.225-.506-.437-.765-.643.192-.27.38-.546.559-.832l25.584-40.914 19.517.682c20.573.712 21.715-31.183 1.115-31.903L57.045.021c-5.686-.193-11.146 2.734-14.131 7.536L12.469 56.244c-1.369 2.192-2.139 4.587-2.357 6.996-2.072 1.254-3.891 2.995-5.262 5.188l-.952 1.522c-5.989 9.578-.016 22.577 11.188 24.242.84 1.523 1.939 2.937 3.306 4.165l42.733 38.449c1.923 1.73 4.15 2.906 6.488 3.541.875 2.252 2.275 4.342 4.195 6.07l1.336 1.201c.751.676 1.549 1.267 2.381 1.774-.941 2.861-1.629 5.853-2.023 8.952l-3.721 29.158c-1.813 14.204 2.803 27.746 11.583 37.711.874 13.84 10.767 26.008 24.996 29.146l4.071.897c17.485 3.854 35.188-7.939 38.328-25.568 8.569-7.441 14.541-17.936 16.091-30.074l3.72-29.157c.485-3.798.508-7.549.117-11.196l41.701 11.947-31.475 37.484c-.879 1.047-1.647 2.244-2.225 3.465-3.693 6.648-.693 16.072 5.518 20.041l23.839 16.067c17.132 11.544 34.891-14.988 17.864-26.466l-9.133-6.154 25.559-30.438c1.662-1.98 2.758-4.246 3.311-6.601 2.225-.953 4.268-2.423 5.93-4.401l1.154-1.376c5.672-6.752 4.791-16.818-1.966-22.486-3.821-3.203 6.757 5.668 0 0zm-5.082 16.756c-.19.262-.422.527-.645.75l-51.898 51.117 27.188 11.105c8.86 3.619.058 16.797-6.698 9.924l-20.49-21.029 41.033-56.471-79.912-18.32c-2.586-.592-4.391-2.771-4.631-5.272l-21.995 1.579c-1.231.09-2.402-.195-3.407-.754l-1.023 18.063c3.814.056 6.618 3.71 5.771 7.396l-12.074 51.01c2.668.832 4.435 3.416 4.28 6.187l-1.865 30.81-10.007-29.201c-1.387-4.048 1.891-8.338 6.162-8.064l1.627-52.312c.094-2.982 2.346-5.384 5.21-5.769l-4.353-17.277c-1.533 1.164-3.24 1.555-5.123 1.174l-22.346-4.954c-1.431 4.124-6.804 5.333-9.905 2.296L21.769 82.699c-4.896 5.785-13.823-1.446-9.403-7.464l44.121-59.262 28.943-4.978c9.43-1.623 8.957 14.213-.42 11.964l-28.523-6.986-33.963 65.606c-.079.152-.167.296-.256.438l64.144 48.009c1.523 1.139 2.346 2.864 2.398 4.627l22.021-4.881c.811-.18 1.619-.188 2.39-.053l-1.869-7.418c-.972-3.857 2.124-7.654 6.073-7.526l1.453-36.31c.361-9.033 14.803-6.224 11.756 2.304l-12.355 34.094c2.998.53 5.157 3.278 4.999 6.302l-.429 7.556c1.461-.594 2.949-.624 4.462-.093l20.671 7.606c1.15-3.095 4.676-4.658 7.74-3.519l76.982 29.045 1.25-1.719c4.554-6.266 14.284.788 9.728 7.058-.191.261 1.95-2.684 0 0z"/>
</svg>
