<svg xmlns="http://www.w3.org/2000/svg" viewBox="0 0 256 256">
  <path fill="#3726A6" d="M255.984 52.082c.197 2.224-1.455 3.864-3.675 3.645l-12.258-1.212c-2.22-.22-3.734 1.403-3.366 3.605l2.03 12.161c.368 2.202-1.146 3.825-3.365 3.605l-12.26-1.211c-2.22-.219-3.733 1.403-3.366 3.605l2.028 12.166c.367 2.203-1.147 3.825-3.367 3.605l-12.259-1.212c-2.22-.219-3.734 1.403-3.367 3.605l2.029 12.164c.367 2.202-1.147 3.825-3.366 3.606l-12.26-1.211c-2.219-.22-3.734 1.403-3.367 3.605l2.027 12.167c.367 2.202-1.148 3.824-3.368 3.605l-12.26-1.21c-2.22-.219-3.734 1.403-3.367 3.605l1.649 9.884c-2.421-1.661-5.322-2.572-8.342-2.572-.121 0-.241.001-.36.004l-48.551-48.609L206.54 2.117c1.63-1.525 4.252-1.48 5.829.098l40.14 40.189c1.577 1.579 3.029 4.69 3.227 6.915l.248 2.763zm-119.059 127.19c.367 2.202-1.148 3.825-3.367 3.604l-12.262-1.208c-2.22-.219-3.735 1.403-3.369 3.605l2.024 12.173c.366 2.201-1.149 3.824-3.369 3.606l-12.266-1.206c-1.227-.122-2.548.293-3.646 1.021 1.244 9.642-1.48 19.753-8.271 27.354L70.8 252.398c-2.985 3.342-7.974 3.481-11.141.31L2.317 195.3c-3.167-3.172-3.028-8.165.311-11.155l42.249-37.837c2.535-2.271 6.183-2.729 9.179-1.432l32.499-30.426 49.42 49.48c-.001.053.004.104.004.157-.847.638-1.295 1.721-1.079 3.017l2.025 12.168zm-63.067 19.034l-21.001-21.027c-1.584-1.585-4.221-1.658-5.89-.163l-11.973 10.723c-1.669 1.494-1.738 3.992-.154 5.577l26.701 26.732c1.584 1.585 4.078 1.516 5.571-.155l7.153-8.008c3.336-3.732 3.145-10.124-.407-13.679zm176.253 20.355l-82.291-72.388c-2.263-1.991-5.424-2.553-8.209-1.738L85.624 70.458l13.622-13.639c3.153-3.158 3.153-8.325 0-11.482l-3.021-3.025c.117-.129.232-.259.349-.389 4.097-4.56 8.243-9.26 13.248-12.85 5.026-3.606 10.771-6.055 16.525-8.229 2.881-1.089 5.775-2.137 8.652-3.234 2.021-.771 3.714-2.321 2.633-4.657-.557-1.203-1.901-2.03-2.999-2.664-2.254-1.303-4.8-2.308-7.319-2.945-5.681-1.435-11.59-1.726-17.354-.595-6.185 1.214-11.846 4.048-17.031 7.57-4.858 3.298-9.201 7.213-13.604 11.073l-3.016-3.019c-3.154-3.158-8.314-3.158-11.469 0L23.076 64.188c-3.153 3.158-3.153 8.325 0 11.482l2.086 2.088c-.564.621-1.141 1.231-1.7 1.856-1.274 1.421-2.531 2.857-3.779 4.302l-2.421-2.424c-3.154-3.158-8.314-3.158-11.469 0l-3.428 3.433c-3.154 3.158-3.154 8.324 0 11.482l22.938 22.965c3.154 3.158 8.314 3.158 11.468 0l3.429-3.432c3.153-3.158 3.153-8.325 0-11.482l-2.409-2.412c1.896-1.646 3.766-3.325 5.625-5.008.176-.159.347-.323.521-.482l2.077 2.08c3.154 3.158 8.314 3.158 11.469 0l10.938-10.953 73.987 74.076c-.813 2.789-.252 5.953 1.736 8.219l72.3 82.392c2.944 3.354 7.934 3.515 11.088.357l22.937-22.964c3.153-3.159 2.993-8.154-.358-11.102z"/>
</svg>
