<svg xmlns="http://www.w3.org/2000/svg" viewBox="0 0 320 256">
  <path fill="#3726A6" d="M284 24h-89.517c-4.744-5.552-10.995-9.77-18.109-12.04-.068-6.568-5.409-11.873-11.993-11.873s-11.925 5.305-11.994 11.873c-7.113 2.27-13.365 6.488-18.109 12.04H61.68C56.93 12.28 45.43 4 32 4 14.33 4 0 18.33 0 36v160c0 5.55.773 10.919 2.189 16.023l.021.146c.004-.011.009-.021.013-.03C9.291 237.406 32.508 256 60 256h224c19.851 0 36-16.149 36-36V60c0-19.851-16.149-36-36-36zM153.994 38.079c2.075 3.588 5.944 6.008 10.387 6.008s8.312-2.42 10.386-6.008c3.191 2.859 5.214 6.996 5.214 11.607 0 8.602-6.998 15.6-15.6 15.6s-15.6-6.998-15.6-15.6c0-4.611 2.023-8.748 5.213-11.607zm2.144 50.338c2.661.566 5.417.869 8.243.869 2.827 0 5.583-.304 8.244-.869l26.652 53.297c-11.064 4.196-22.861 6.372-34.896 6.372-12.034 0-23.831-2.176-34.895-6.372l26.652-53.297zM296 220c0 6.617-5.383 12-12 12H60c-19.851 0-36-16.149-36-36v-3.11c2.561-.649 5.24-1 8-1 10.41 0 19.66 4.971 25.5 12.66 1.33 1.76 2.689 3.33 3.279 3.33h1.07c1.19 0 2.15-1.79 2.15-4V48h60.824c-.024.56-.043 1.121-.043 1.687 0 10.332 3.98 19.749 10.485 26.807l-27.216 54.424c-5.054-1.683-10.795.157-13.836 4.83-3.551 5.453-2.09 12.711 3.223 16.396L86.947 173.12c-2.964 5.928-.562 13.136 5.366 16.1 1.723.862 3.553 1.271 5.357 1.271 4.401 0 8.64-2.432 10.742-6.636l10.299-20.596c14.418 5.802 29.88 8.828 45.668 8.828 15.789 0 31.251-3.026 45.669-8.829l10.3 20.597c2.103 4.205 6.34 6.636 10.742 6.636 1.803 0 3.635-.408 5.357-1.271 5.928-2.964 8.33-10.172 5.365-16.1l-10.489-20.977c5.313-3.685 6.772-10.941 3.222-16.395-3.04-4.671-8.781-6.511-13.836-4.829l-27.216-54.426c6.504-7.058 10.485-16.475 10.485-26.807 0-.565-.02-1.126-.043-1.687h57.413c-9.18 31.563-8.362 64.939 2.473 96.212-5.877 6.16-12.298 11.75-19.174 16.69l4.32 8.639c2.39 4.777 2.775 10.2 1.087 15.269-.202.605-.434 1.194-.688 1.771 8.825-5.46 17.122-11.775 24.765-18.851 6.018 11.198 13.33 21.589 21.866 31.053V220zm0-62.281c-1.598-2.895-3.092-5.854-4.481-8.874 1.545-1.972 3.035-3.976 4.481-6.007v14.881zm0-68.624c-.063.177-.137.349-.192.531-3.332 10.876-7.945 21.165-13.767 30.783-5.146-23.937-3.672-48.75 4.405-72.157C291.894 49.385 296 54.221 296 60v29.095zm-68.916 108.991c-11.102 4.685-22.748 8.152-34.731 10.264-.704.124-1.405.184-2.096.184-5.716 0-10.778-4.098-11.805-9.92-1.149-6.527 3.21-12.75 9.736-13.9 7.138-1.257 14.135-3.083 20.932-5.428l4.074 8.146c2.8 5.598 7.924 9.451 13.89 10.654z"/>
</svg>
