<svg xmlns="http://www.w3.org/2000/svg" viewBox="0 0 320 256">
  <path fill="#3726A6" d="M292 0H28C12.561 0 0 12.561 0 28v200c0 15.439 12.561 28 28 28h264c15.439 0 28-12.561 28-28V28c0-15.439-12.561-28-28-28zM28 24h264c2.168 0 4 1.832 4 4v164H24V28c0-2.168 1.832-4 4-4zm73.064 65.689C105 97.56 101.021 104 92.221 104H43.78c-8.8 0-12.78-6.44-8.845-14.311l25.909-51.816c3.936-7.871 10.376-7.871 14.312 0l25.908 51.816zM204 144c0 19.882-16.118 36-36 36-17.131 0-31.457-11.971-35.097-28H88c-6.627 0-12-5.373-12-12s5.373-12 12-12h47.751c5.892-11.852 18.116-20 32.249-20 19.882 0 36 16.118 36 36zm48 40c-6.627 0-12-5.373-12-12v-36c0-6.627 5.373-12 12-12s12 5.373 12 12v36c0 6.627-5.373 12-12 12zm36-144v56c0 2.944-1.615 5.523-4 6.912v7.411c0 6.627-5.373 12-12 12s-12-5.373-12-12V104h-16v8c0 6.627-5.373 12-12 12s-12-5.373-12-12v-9.088c-2.385-1.389-4-3.968-4-6.912V40c0-4.4 3.6-8 8-8h56c4.4 0 8 3.6 8 8zM88 172c0 6.627-5.373 12-12 12H44c-6.627 0-12-5.373-12-12s5.373-12 12-12h32c6.627 0 12 5.373 12 12zm44 0c0-6.627-5.373-12-12-12h-12c-6.627 0-12 5.373-12 12s5.373 12 12 12h12c6.627 0 12-5.373 12-12z"/>
</svg>
