<svg xmlns="http://www.w3.org/2000/svg" viewBox="0 0 320 256">
  <path fill="#3726A6" d="M279.453 38.415l5.719-5.718c1.562-1.563 1.567-4.101-.053-5.603C265.647 9.034 241.269 0 216.889 0s-48.759 9.034-68.23 27.094c-1.62 1.502-1.614 4.04-.053 5.603l5.719 5.718c1.562 1.563 4.144 1.611 5.832.186C176.691 24.64 196.79 17.07 216.889 17.07c20.101 0 40.199 7.57 56.733 21.531 1.688 1.425 4.27 1.376 5.831-.186zm-18.541 11.462c-12.41-11.071-28.217-17.168-44.023-17.168s-31.613 6.098-44.023 17.168c-1.648 1.471-1.641 4.014-.079 5.577l5.719 5.718c1.562 1.563 4.084 1.547 5.77.119 9.471-8.028 21.037-11.513 32.614-11.513s23.144 3.485 32.614 11.513c1.686 1.428 4.208 1.443 5.77-.119l5.719-5.718c1.56-1.563 1.568-4.106-.081-5.577zm-29.801 92.346v-52.89c0-2.209-1.791-4-4-4h-20.445c-2.209 0-4 1.791-4 4v52.889H60.444C44.806 142.223 32 155.027 32 170.667v56.889C32 243.194 44.806 256 60.444 256h199.111C275.194 256 288 243.194 288 227.556v-56.889c0-15.64-12.806-28.444-28.444-28.444h-28.445zm-132 71.11H78.666c-2.209 0-4-1.791-4-4v-20.444c0-2.209 1.791-4 4-4h20.445c2.209 0 4 1.791 4 4v20.444c0 2.209-1.791 4-4 4zm49.778 0h-20.444c-2.209 0-4-1.791-4-4v-20.444c0-2.209 1.791-4 4-4h20.444c2.209 0 4 1.791 4 4v20.444c0 2.209-1.791 4-4 4zm49.777 0h-20.443c-2.209 0-4-1.791-4-4v-20.444c0-2.209 1.791-4 4-4h20.443c2.209 0 4 1.791 4 4v20.444c0 2.209-1.791 4-4 4z"/>
</svg>
