<svg xmlns="http://www.w3.org/2000/svg" viewBox="0 0 256 256">
  <path fill="#3726A6" d="M32.063 64.125v64.625h-.023c-.266 4.18-3.75 7.516-7.992 7.516s-7.727-3.336-7.992-7.516H4.008c-2.211 0-4.008-1.793-4.008-4.008V68.633c0-2.211 1.797-4.008 4.008-4.008h12.023v-.5c0-4.41 3.609-8.016 8.016-8.016s8.016 3.606 8.016 8.016zm180.515 8.996c1.945-1.063 3.844-2.773 3.844-4.988v-56.11c0-2.215-1.793-4.008-4.008-4.008h-12.273c-16.516 0-32.035 8.145-42.574 22.344-8.567 11.543-13.286 26.383-13.286 41.782v56.109c-4.406 0-8.016 3.605-8.016 8.016s3.609 8.016 8.016 8.016h64.125c4.41 0 8.016-3.605 8.016-8.016s-3.605-8.016-8.016-8.016V80.156c0-3.035 1.688-5.676 4.172-7.035zm39.414-65.105h-11.523c0-4.41-3.605-8.016-8.016-8.016-4.406 0-8.016 3.605-8.016 8.016v64.125c0 4.41 3.609 8.016 8.016 8.016 4.41 0 8.016-3.605 8.016-8.016h11.523c2.211 0 4.008-1.793 4.008-4.008v-56.11c0-2.214-1.797-4.007-4.008-4.007zM144.281 156.305v19.539c0 8.84-7.191 16.031-16.031 16.031s-16.031-7.191-16.031-16.031V128.75c0-15.457-4.777-30.34-13.453-41.91-10.59-14.117-26.137-22.215-42.656-22.215H44.086c-2.211 0-4.008 1.797-4.008 4.008v56.109c0 2.215 1.902 3.926 3.844 4.988 2.484 1.359 4.172 4 4.172 7.039v39.074c0 44.199 35.957 80.156 80.156 80.156s80.156-35.957 80.156-80.156v-19.539c0-2.215-1.793-4.008-4.008-4.008h-56.109c-2.211.001-4.008 1.794-4.008 4.009z"/>
</svg>
