<svg xmlns="http://www.w3.org/2000/svg" viewBox="0 0 320 256">
  <path fill="#3726A6" d="M54 39.22c0 4.419-3.582 8-8 8s-8-3.581-8-8 3.582-8 8-8 8 3.581 8 8zm245.352 106.51v92.289c0 9.914-8.057 17.98-17.958 17.98H38.605c-9.902 0-17.957-8.066-17.957-17.98V77.685C13.56 63.901 7 48.635 7 39.317 7 17.637 24.615 0 46.268 0c11.736 0 22.277 5.188 29.479 13.385h205.647c9.901 0 17.958 8.066 17.958 17.98v46.239C307.7 84.819 313 95.479 313 107.362c0 9.318-6.56 24.586-13.648 38.368zm-25.62-53.71c-8.45 0-15.324 6.883-15.324 15.343 0 5.036 6.869 20.007 15.324 35.449 8.454-15.442 15.324-30.413 15.324-35.449.001-8.461-6.874-15.343-15.324-15.343zm1.676-23.932v-30.73h-1.266L213.269 98.31l9.721 9.709c4.682 4.676 4.691 12.265.021 16.952-2.338 2.348-5.407 3.521-8.477 3.521-3.059 0-6.117-1.166-8.454-3.5l-9.743-9.73-19.406 19.43 37.574 37.62 9.731-9.706c4.686-4.673 12.266-4.658 16.931.031 4.667 4.69 4.652 12.279-.031 16.952l-9.7 9.675 42.708 42.762h1.265v-53.518c-.552.078-1.11.126-1.676.126-4.147 0-8-2.149-10.183-5.682-6.822-11.047-29.086-48.423-29.086-65.59 0-21.679 17.616-39.316 39.269-39.316.561 0 1.119.018 1.675.042zm-35.127 163.937l-25.811-25.843-19.361 19.309 6.543 6.534h38.629zm-72.534 0l-16.202-16.182-27.863-27.834-19.366 19.39 24.722 24.626h38.709zm-80.406-41.534l19.39-19.413-19.475-19.453-19.441 19.416 19.526 19.45zm-30.892-85.586c-2.182 3.532-6.033 5.682-10.182 5.682-.566 0-1.125-.048-1.676-.126v49.913l25.713-25.683-9.711-9.699c-4.682-4.676-4.691-12.266-.021-16.952 4.67-4.688 12.251-4.696 16.931-.021l18.209 18.188c.007.007.015.013.021.02s.011.014.018.02l9.708 9.696L124.9 116.5 78.895 70.436c-.852-.853-1.544-1.804-2.086-2.813-7.021 15.224-16.352 30.794-20.36 37.282zM240.28 37.358h-15.366l7.704 7.673 7.662-7.673zm-43.965 5.332l-55.7 55.64L160 117.739l55.688-55.757-19.373-19.292zm-18.157 165.87l19.381-19.33-1.223-1.223-19.365 19.347 1.207 1.206zm1.229-37.505l-27.845-27.88-.007-.007c-.003-.002-.004-.005-.007-.007l-9.696-9.709-19.423 19.422 9.677 9.665c.018.018.036.031.054.049.017.017.03.035.046.052l27.815 27.783 19.386-19.368zM85.486 37.358c.031.649.049 1.302.049 1.959 0 3.176-.766 7.047-2.051 11.313 4.186-1.432 9.002-.489 12.341 2.854l27.859 27.896 44.067-44.021H85.486zm-54.543 1.959c0 5.045 6.869 20.015 15.322 35.452 8.456-15.444 15.326-30.415 15.326-35.452 0-8.461-6.874-15.344-15.324-15.344-8.449.001-15.324 6.883-15.324 15.344zm13.649 192.708h50.496l-16.137-16.073c-.019-.019-.039-.033-.057-.052-.018-.017-.031-.035-.047-.051l-27.986-27.877-6.27 6.264v37.789zM274 99.34c-4.418 0-8 3.582-8 8s3.582 8 8 8 8-3.582 8-8-3.582-8-8-8z"/>
</svg>
