<svg xmlns="http://www.w3.org/2000/svg" viewBox="0 0 256 256">
  <path fill="#3726A6" d="M240 240H16c-8.836 0-16-7.148-16-15.965 0-8.82 7.164-15.965 16-15.965h224c8.836 0 16 7.145 16 15.965 0 8.817-7.164 15.965-16 15.965zm16-64.359c0-8.82-7.164-15.965-16-15.965H16c-8.836 0-16 7.145-16 15.965 0 8.816 7.164 15.965 16 15.965h224c8.836-.001 16-7.149 16-15.965zm-16-63.864H56.586c-4.34 0-8-3.652-8-7.98 0-5.492 5.109-11.633 10.52-12.637 0 0 65.637-13.672 87.809-16.313 2.605-.313 6.648.164 8.723 2.98.652.887 1.758 1.488 2.805 1.141l1.898-.633c1.551 4.637 1.52 8.336-.094 10.996-2.363 3.891-7.578 4.777-7.605 4.781-2.184.324-3.691 2.352-3.367 4.531.293 1.984 2 3.406 3.953 3.406.195 0 .391-.012.59-.043.359-.051 8.871-1.387 13.219-8.457 2.934-4.766 3.234-10.734.895-17.742l1.895-.633c1.051-.348 1.621-1.48 1.191-2.496-1.691-3.984-4.191-6.887-7.074-8.984.094-.254.188-.508.27-.77l6.023-1.207c1.086-.215 1.785-1.27 1.57-2.348l-.395-1.957 28.012-5.617c2.164-.434 3.57-2.539 3.133-4.699-.434-2.16-2.543-3.563-4.711-3.125l-28.012 5.613-.395-1.957c-.215-1.078-1.27-1.777-2.352-1.563l-6.461 1.297c-.668-.711-1.395-1.355-2.172-1.934 1.25-2.82 1.941-6.047 1.766-9.703-.055-1.102-1.066-1.875-2.164-1.734l-1.984.258c-.945-7.324-3.82-12.57-8.539-15.586-7.004-4.477-15.242-1.98-15.594-1.875-2.098.656-3.258 2.871-2.617 4.973.641 2.098 2.875 3.281 4.98 2.656.051-.016 5.133-1.488 8.957.992 2.609 1.695 4.254 5.012 4.879 9.859l-1.984.258c-1.094.141-1.828 1.156-2.043 2.238-.609 3.055-3.406 5.395-5.934 6.227-20.513 6.744-84.927 15.78-84.927 15.78-20.563 3.82-36.664 23.16-36.664 44.027 0 22.008 17.941 39.914 40 39.914H240c8.836 0 16-7.148 16-15.969 0-8.816-7.164-15.965-16-15.965z"/>
</svg>
