<svg xmlns="http://www.w3.org/2000/svg" width="128" height="128">
  <path fill="#3A2D80" d="M32.723 11.064c.402 10.529 16.07 8.743 16.336-1.197.291-10.898-16.355-9.31-16.336 1.197zm62.416 16.543c.393 10.53 16.07 8.745 16.336-1.197.291-10.895-16.352-9.309-16.336 1.197zM36.951 49.253c3.459-11.495 16.867-10.52 26.479-11.514 7.662-.793 25.02 1.066 26.861-9.668 1.66-9.668-8.975-8.505-15.008-8.029-11.485.906-26.196-.17-36.859 5.118-19.598 9.722-26.5 40.074-7.025 53.842 9.42 6.66 21.779 2.799 30.846 9.414 3.92 2.859 6.854 7.37 7.605 12.19.877 5.625-1.129 11.2-.623 16.776.643 7.098 9.324 9.85 14.115 4.533 2.979-3.307 2.494-8.607 2.82-12.713.488-6.128 1.44-12.352.678-18.484-1.271-10.215-9.699-19.67-19.691-22.128-9.313-2.29-24.781 1.007-29.687-9.567-1.483-3.192-1.284-6.396-.511-9.77zM16.68 113.151c1.379 9.636 15.406 5.203 21.25 4.558 6.389-.703 12.953-1.032 19.289-2.125 4.182-.719 7.484-2.993 8.493-7.308 2.224-9.512-7.833-8.924-13.884-8.256-8.082.889-16.162 1.779-24.242 2.67-3.498.385-6.916 1.018-9.119 4.073-1.295 1.8-1.958 4.183-1.787 6.388z"/>
</svg>
