<?xml version="1.0" encoding="utf-8"?>
<!-- Generator: Adobe Illustrator 16.0.0, SVG Export Plug-In . SVG Version: 6.00 Build 0)  -->
<!DOCTYPE svg PUBLIC "-//W3C//DTD SVG 1.1//EN" "http://www.w3.org/Graphics/SVG/1.1/DTD/svg11.dtd">
<svg version="1.1" xmlns="http://www.w3.org/2000/svg" xmlns:xlink="http://www.w3.org/1999/xlink" x="0px" y="0px" width="500px"
	 height="250px" viewBox="0 0 500 250" enable-background="new 0 0 500 250" xml:space="preserve">
<g id="light_x5F_theme_x5F_orange">
</g>
<g id="light_x5F_theme_x5F_green">
</g>
<g id="dark_x5F_theme_x5F_orange">
</g>
<g id="dark_x5F_theme_x5F_green">
</g>
<g id="web_x5F_logo">
	<g id="logo_x5F_text_1_">
		<g id="fill_2_">
			<polyline id="r_1_" fill="#393861" points="461.077,123.448 461.383,121.191 461.774,119.573 462.298,118.026 462.948,116.555 
				463.719,115.166 464.604,113.863 465.596,112.655 466.692,111.544 467.883,110.538 469.166,109.641 470.531,108.858 
				471.976,108.196 473.493,107.662 475.075,107.258 476.717,106.992 477.845,106.894 478.992,106.86 489.727,106.86 
				490.573,106.818 491.381,106.69 492.146,106.482 492.863,106.196 493.368,105.933 493.845,105.627 494.29,105.282 
				494.702,104.899 495.081,104.479 495.424,104.022 495.823,103.36 496.151,102.641 496.409,101.864 496.589,101.036 
				496.644,100.517 496.636,99.999 496.571,99.489 496.454,98.988 496.284,98.504 496.066,98.037 495.805,97.592 495.502,97.174 
				495.162,96.784 494.786,96.43 494.38,96.111 493.945,95.837 493.485,95.604 493.006,95.425 492.508,95.296 492.167,95.242 
				491.645,95.211 466.237,95.211 466.043,95.201 465.857,95.174 465.674,95.13 465.5,95.069 465.334,94.992 465.176,94.9 
				465.028,94.796 464.892,94.678 464.766,94.549 464.651,94.408 464.551,94.256 464.464,94.096 464.394,93.927 464.337,93.749 
				464.299,93.565 464.282,93.44 464.273,93.247 464.265,93.053 464.235,92.866 464.191,92.685 464.131,92.51 464.054,92.343 
				463.964,92.187 463.858,92.038 463.74,91.9 463.61,91.774 463.47,91.66 463.319,91.56 463.157,91.475 462.989,91.403 
				462.812,91.347 462.629,91.309 462.502,91.292 462.31,91.283 458.902,91.283 458.164,91.324 457.631,91.41 457.116,91.539 
				456.625,91.71 456.155,91.923 455.712,92.173 455.295,92.462 454.907,92.785 454.553,93.144 454.229,93.532 453.938,93.951 
				453.687,94.401 453.473,94.876 453.299,95.377 453.168,95.9 453.062,96.632 448.249,151.3 448.232,151.8 448.269,152.293 
				448.354,152.773 448.488,153.238 448.668,153.688 448.89,154.117 449.15,154.524 449.447,154.903 449.778,155.253 
				450.141,155.572 450.531,155.855 450.947,156.1 451.386,156.305 451.846,156.464 452.322,156.576 452.648,156.624 
				453.148,156.65 453.882,156.607 454.413,156.522 454.923,156.393 455.413,156.22 455.879,156.006 456.32,155.754 
				456.734,155.463 457.12,155.138 457.473,154.78 457.794,154.39 458.079,153.969 458.328,153.521 458.536,153.047 
				458.707,152.546 458.834,152.024 458.892,151.664 458.932,151.295 461.077,123.448 			"/>
			<path id="e2_1_" fill="#393861" d="M417.887,129.959l-1.086,0.058l-0.784,0.119l-0.996,0.254l-0.711,0.262l-0.674,0.317
				l-0.638,0.371l-0.599,0.425l-0.556,0.477l-0.512,0.526l-0.464,0.569l-0.416,0.616l-0.363,0.659l-0.402,0.94l-0.299,1.008
				l-0.192,1.07l-0.048,0.7l0.013,0.464l0.081,0.686l0.149,0.671l0.221,0.649l0.281,0.625l0.342,0.595l0.395,0.562l0.446,0.521
				l0.492,0.477l0.535,0.43l0.573,0.376l0.607,0.317l0.637,0.258l0.661,0.187l0.685,0.116l0.703,0.041h17.034l0.511,0.03
				l0.334,0.053l0.488,0.127l0.472,0.179l0.449,0.226l0.426,0.271l0.397,0.312l0.367,0.349l0.335,0.382l0.294,0.411l0.256,0.436
				l0.213,0.459l0.165,0.474l0.115,0.492l0.062,0.499l0.006,0.506l-0.055,0.509l-0.179,0.815l-0.255,0.761l-0.324,0.709
				l-0.395,0.648l-0.337,0.447l-0.372,0.412l-0.406,0.376l-0.437,0.337l-0.468,0.3l-0.497,0.258l-0.705,0.281l-0.752,0.203
				l-0.795,0.125l-0.832,0.042h-15.222l-1.907-0.109l-1.246-0.188l-1.821-0.448l-1.755-0.636l-1.679-0.81l-1.589-0.97l-1.489-1.12
				l-1.379-1.256l-1.256-1.379l-1.122-1.489l-0.977-1.586l-0.82-1.673l-0.653-1.744l-0.476-1.804l-0.283-1.852l-0.084-1.885
				l0.129-1.906l2.33-18.644l0.551-3.053l0.613-2.174l1.072-2.731l0.987-1.918l1.137-1.799l1.278-1.672l1.415-1.542l1.544-1.405
				l1.665-1.262l1.781-1.112l1.893-0.958l1.991-0.796l2.806-0.802l2.959-0.491l3.096-0.167h4.644l1.595,0.088l1.042,0.156
				l1.522,0.368l1.467,0.523l1.405,0.667l1.329,0.8l1.246,0.924l1.153,1.037l1.053,1.14l0.943,1.233l0.822,1.314l0.695,1.388
				l0.557,1.45l0.408,1.502l0.253,1.543l0.087,1.574l-0.087,1.595l-0.121,1.085l-0.374,2.246l-0.433,1.602l-0.771,2.019
				l-0.714,1.419l-0.828,1.332l-0.933,1.24l-1.037,1.146l-1.132,1.044l-1.222,0.94l-1.31,0.829l-1.39,0.715l-1.465,0.595l-2.063,0.6
				l-2.174,0.367l-2.272,0.126H417.887 M429.004,118.202l0.751-0.203l0.706-0.28l0.497-0.258l0.468-0.301l0.438-0.336l0.405-0.376
				l0.371-0.413l0.339-0.446l0.393-0.65l0.325-0.707l0.253-0.762l0.18-0.814l0.055-0.509l0.002-0.338l-0.042-0.503l-0.098-0.493
				l-0.15-0.481l-0.196-0.464l-0.241-0.444l-0.283-0.42l-0.321-0.393l-0.356-0.359l-0.387-0.324l-0.417-0.285l-0.442-0.242
				l-0.464-0.194l-0.483-0.144l-0.497-0.089l-0.512-0.032h-11.431l-0.832,0.043l-0.794,0.125l-0.751,0.203l-0.706,0.28l-0.497,0.258
				l-0.468,0.3l-0.438,0.339l-0.405,0.375l-0.372,0.412l-0.337,0.446l-0.394,0.649l-0.325,0.708l-0.255,0.762l-0.179,0.814
				l-0.055,0.509l-0.002,0.338l0.042,0.502l0.099,0.494l0.148,0.48l0.197,0.465l0.241,0.444l0.283,0.42l0.321,0.392l0.355,0.361
				l0.389,0.324l0.417,0.285l0.442,0.241l0.464,0.195l0.481,0.143l0.499,0.09l0.512,0.03h11.43l0.831-0.042L429.004,118.202"/>
			<polyline id="c_1_" fill="#393861" points="362.284,128.79 362.657,121.35 362.797,119.884 363.063,118.467 363.449,117.105 
				363.951,115.806 364.564,114.571 365.279,113.408 366.093,112.323 367,111.318 367.993,110.401 369.068,109.578 370.218,108.853 
				371.438,108.231 372.721,107.719 374.064,107.321 375.46,107.043 376.416,106.927 377.889,106.86 386.289,106.86 
				387.468,106.803 388.351,106.673 389.18,106.469 389.955,106.189 390.677,105.838 391.346,105.41 391.962,104.91 
				392.522,104.334 393.031,103.687 393.487,102.963 393.887,102.166 394.313,101.066 394.397,100.756 394.455,100.441 
				394.483,100.123 394.475,99.643 394.409,99.163 394.289,98.688 394.118,98.223 393.9,97.775 393.641,97.349 393.341,96.945 
				393.006,96.575 392.637,96.24 392.242,95.947 391.82,95.699 391.379,95.504 390.919,95.363 390.605,95.306 390.447,95.286 
				390.126,95.271 375.164,95.271 373.012,95.366 370.924,95.647 368.908,96.105 366.974,96.733 365.126,97.526 363.376,98.474 
				361.73,99.57 360.194,100.806 358.782,102.176 357.496,103.67 356.347,105.283 355.34,107.008 354.486,108.834 353.792,110.758 
				353.265,112.769 353.012,114.155 352.781,116.298 351.575,135.596 351.556,137.594 351.741,139.551 352.12,141.459 
				352.684,143.304 353.422,145.077 354.322,146.765 355.375,148.36 356.571,149.847 357.9,151.219 359.35,152.462 360.91,153.564 
				362.572,154.516 364.324,155.309 366.156,155.929 368.06,156.363 369.36,156.545 371.355,156.65 386.658,156.65 387.491,156.608 
				388.283,156.483 389.036,156.28 389.742,156 390.237,155.742 390.706,155.441 391.144,155.104 391.548,154.729 391.921,154.316 
				392.259,153.869 392.652,153.221 392.978,152.512 393.231,151.751 393.411,150.937 393.466,150.427 393.46,149.921 
				393.398,149.421 393.282,148.932 393.118,148.456 392.904,147.998 392.649,147.562 392.353,147.149 392.021,146.77 
				391.653,146.421 391.256,146.107 390.829,145.837 390.379,145.61 389.908,145.433 389.421,145.307 389.087,145.253 
				388.575,145.223 377.916,145.223 376.349,145.142 374.822,144.903 373.344,144.52 371.923,143.994 370.569,143.337 
				369.288,142.558 368.09,141.663 366.979,140.662 365.966,139.565 365.058,138.378 364.264,137.107 363.591,135.768 
				363.047,134.361 362.639,132.898 362.377,131.389 362.288,130.36 362.284,128.79 			"/>
			<polyline id="a_1_" fill="#393861" points="333.161,113.93 333.691,115.075 334.107,116.269 334.402,117.501 334.566,118.768 
				334.601,119.623 334.535,120.923 330.93,154.568 330.902,155.124 330.934,155.67 331.022,156.206 331.166,156.727 
				331.36,157.229 331.602,157.711 331.889,158.167 332.215,158.593 332.582,158.988 332.983,159.347 333.416,159.667 
				333.877,159.944 334.364,160.175 334.874,160.354 335.404,160.482 335.767,160.536 336.319,160.568 337.147,160.521 
				337.745,160.425 338.321,160.278 338.872,160.086 339.397,159.847 339.895,159.564 340.36,159.239 340.795,158.875 
				341.193,158.474 341.556,158.035 341.878,157.563 342.16,157.061 342.398,156.525 342.592,155.965 342.738,155.378 
				342.853,154.556 347.624,97.429 347.64,96.889 347.599,96.357 347.503,95.839 347.356,95.335 347.162,94.85 346.922,94.388 
				346.64,93.95 346.318,93.541 345.961,93.163 345.567,92.82 345.145,92.516 344.694,92.251 344.222,92.032 343.725,91.86 
				343.209,91.74 342.857,91.689 342.315,91.66 338.503,91.66 338.207,91.674 337.928,91.713 337.664,91.779 337.416,91.869 
				337.187,91.985 337.025,92.087 336.874,92.202 336.733,92.331 336.563,92.523 336.412,92.737 336.282,92.973 336.173,93.229 
				336.125,93.365 336.068,93.581 335.985,93.863 335.881,94.126 335.757,94.367 335.611,94.586 335.444,94.783 335.309,94.917 
				335.161,95.036 335.003,95.144 334.777,95.265 334.533,95.361 334.273,95.433 333.998,95.479 333.854,95.492 333.633,95.5 
				316.007,95.5 314.004,95.588 312.062,95.85 310.186,96.276 308.386,96.861 306.666,97.599 305.038,98.479 303.506,99.499 
				302.079,100.648 300.763,101.923 299.567,103.313 298.497,104.815 297.561,106.418 296.765,108.118 296.119,109.908 
				295.629,111.779 295.393,113.069 295.179,115.062 293.628,139.772 293.612,141.374 293.759,142.943 294.063,144.473 
				294.515,145.951 295.105,147.373 295.827,148.727 296.672,150.004 297.631,151.197 298.695,152.296 299.857,153.292 
				301.107,154.176 302.439,154.94 303.845,155.574 305.313,156.071 306.838,156.421 307.881,156.567 309.48,156.65 320.598,156.65 
				321.43,156.608 322.224,156.483 322.976,156.28 323.681,156 324.179,155.742 324.646,155.441 325.083,155.104 325.488,154.729 
				325.86,154.316 326.198,153.869 326.592,153.221 326.917,152.512 327.171,151.751 327.349,150.937 327.405,150.427 
				327.398,149.921 327.337,149.421 327.223,148.932 327.057,148.456 326.845,147.998 326.589,147.562 326.292,147.149 
				325.96,146.77 325.593,146.421 325.194,146.107 324.77,145.837 324.32,145.61 323.849,145.433 323.36,145.307 323.026,145.253 
				322.516,145.223 316.114,145.223 314.988,145.161 313.893,144.98 312.83,144.687 311.81,144.288 310.837,143.791 
				309.918,143.201 309.06,142.528 308.266,141.779 307.547,140.959 306.907,140.076 306.354,139.137 305.89,138.148 
				305.525,137.117 305.266,136.05 305.118,134.956 305.082,134.215 305.133,133.088 306.349,120.933 306.652,118.996 
				307.16,117.163 307.666,115.864 308.273,114.635 308.982,113.479 309.784,112.402 310.672,111.406 311.646,110.499 
				312.7,109.682 313.829,108.958 315.026,108.335 316.29,107.816 317.613,107.404 319.464,107.031 320.422,106.922 321.899,106.86 
				323.198,106.933 324.464,107.144 325.688,107.484 326.869,107.949 327.992,108.527 329.052,109.211 330.044,109.992 
				330.956,110.864 331.786,111.815 332.523,112.84 333.161,113.93 			"/>
			<polyline id="p_1_" fill="#393861" points="259.74,145.223 264.556,145.223 266.029,145.14 267.439,144.897 268.449,144.615 
				269.415,144.252 270.333,143.809 271.199,143.29 272.012,142.698 272.765,142.037 273.455,141.309 274.081,140.52 
				274.636,139.669 275.119,138.764 275.527,137.803 275.945,136.445 276.099,135.735 276.254,134.635 277.691,120.273 
				277.746,119.029 277.668,117.802 277.463,116.603 277.136,115.437 276.695,114.311 276.151,113.235 275.505,112.217 
				274.768,111.263 273.945,110.381 273.042,109.58 272.071,108.866 271.035,108.249 269.94,107.735 268.795,107.333 
				267.608,107.049 266.797,106.93 265.553,106.86 263.691,106.966 261.91,107.273 260.633,107.631 259.412,108.095 
				258.252,108.657 257.157,109.316 256.132,110.067 255.181,110.906 254.308,111.829 253.52,112.831 252.818,113.908 
				252.211,115.058 251.699,116.272 251.29,117.55 250.986,118.888 250.795,120.28 244.94,181.704 244.822,182.486 244.62,183.228 
				244.417,183.752 244.172,184.252 243.888,184.718 243.565,185.154 243.206,185.558 242.813,185.927 242.388,186.257 
				241.933,186.551 241.448,186.804 240.938,187.015 240.404,187.183 239.849,187.304 239.27,187.378 238.674,187.403 
				238.139,187.373 237.618,187.29 237.112,187.154 236.628,186.968 236.164,186.735 235.729,186.463 235.319,186.149 
				234.94,185.798 234.598,185.414 234.292,185 234.025,184.559 233.8,184.093 233.622,183.607 233.492,183.104 233.414,182.585 
				233.394,182.232 233.407,181.697 240.163,97.237 240.271,96.457 240.408,95.897 240.591,95.362 240.817,94.854 241.086,94.375 
				241.393,93.925 241.737,93.508 242.118,93.124 242.531,92.777 242.975,92.468 243.448,92.198 243.947,91.972 244.473,91.788 
				245.021,91.65 245.59,91.559 245.979,91.526 246.376,91.516 250.22,91.525 250.408,91.534 250.592,91.563 250.769,91.605 
				250.938,91.665 251.099,91.74 251.252,91.829 251.396,91.931 251.531,92.046 251.653,92.172 251.764,92.311 251.861,92.458 
				251.945,92.613 252.016,92.778 252.069,92.951 252.106,93.13 252.123,93.253 252.132,93.441 252.142,93.629 252.169,93.811 
				252.211,93.988 252.271,94.157 252.346,94.318 252.435,94.473 252.536,94.616 252.65,94.75 252.777,94.871 252.916,94.982 
				253.063,95.079 253.219,95.162 253.384,95.232 253.556,95.285 253.734,95.323 253.856,95.339 254.045,95.347 271.245,95.312 
				273.013,95.405 274.738,95.685 276.406,96.14 278.012,96.76 279.542,97.534 280.988,98.452 282.342,99.502 283.59,100.673 
				284.723,101.956 285.734,103.337 286.61,104.809 287.344,106.357 287.923,107.973 288.339,109.646 288.58,111.363 
				288.642,112.528 288.573,114.299 286.121,140.481 285.784,142.71 285.214,144.819 284.639,146.313 283.941,147.73 
				283.133,149.062 282.215,150.306 281.194,151.454 280.076,152.504 278.867,153.449 277.57,154.285 276.196,155.006 
				274.742,155.607 273.222,156.084 271.638,156.43 269.994,156.642 268.299,156.713 257.822,156.713 257.308,156.683 
				256.805,156.592 256.32,156.448 255.854,156.253 255.409,156.01 254.989,155.723 254.6,155.397 254.241,155.035 253.918,154.641 
				253.634,154.218 253.39,153.772 253.192,153.306 253.041,152.821 252.942,152.326 252.899,151.819 252.902,151.479 
				252.955,150.967 253.135,150.15 253.39,149.384 253.717,148.672 254.112,148.02 254.451,147.569 254.824,147.154 
				255.233,146.777 255.672,146.438 256.142,146.137 256.641,145.877 257.352,145.595 258.105,145.391 258.903,145.265 
				259.74,145.223 			"/>
			<polyline id="f_1_" fill="#393861" points="212.401,141.765 213.315,141.533 214.266,141.381 215.581,141.305 219.139,141.305 
				220.305,141.25 221.178,141.122 221.997,140.919 222.765,140.646 223.479,140.299 224.141,139.879 224.749,139.385 
				225.306,138.818 225.81,138.18 226.261,137.466 226.659,136.678 227.084,135.592 227.171,135.288 227.228,134.977 
				227.257,134.665 227.25,134.192 227.187,133.719 227.069,133.25 226.901,132.793 226.689,132.352 226.433,131.929 
				226.138,131.532 225.809,131.165 225.446,130.836 225.057,130.546 224.643,130.302 224.209,130.108 223.757,129.97 
				223.448,129.912 223.291,129.893 222.976,129.878 217.499,129.878 216.426,129.82 215.38,129.65 214.367,129.376 
				213.396,129.002 212.468,128.536 211.591,127.985 210.771,127.354 210.015,126.648 209.326,125.877 208.712,125.044 
				208.177,124.157 207.73,123.223 207.374,122.247 207.116,121.235 206.961,120.194 206.92,119.488 206.951,118.414 
				206.954,118.369 207.177,116.799 207.455,115.673 207.824,114.598 208.28,113.576 208.819,112.612 209.438,111.709 
				210.131,110.869 210.896,110.1 211.726,109.403 212.618,108.782 213.569,108.24 214.576,107.783 215.631,107.413 
				216.733,107.135 217.878,106.952 219.462,106.86 226.797,106.86 227.975,106.803 228.857,106.673 229.687,106.469 
				230.462,106.189 231.184,105.838 231.854,105.41 232.469,104.91 233.03,104.334 233.538,103.687 233.993,102.963 
				234.394,102.166 234.819,101.066 234.905,100.756 234.962,100.441 234.99,100.123 234.981,99.643 234.916,99.163 234.796,98.688 
				234.625,98.223 234.407,97.775 234.147,97.349 233.848,96.945 233.513,96.575 233.144,96.24 232.748,95.947 232.327,95.699 
				231.886,95.504 231.426,95.363 231.112,95.306 230.954,95.286 230.633,95.271 215.663,95.271 213.51,95.366 211.421,95.647 
				209.406,96.105 207.469,96.734 205.622,97.527 203.872,98.475 202.225,99.571 200.69,100.808 199.275,102.178 197.988,103.673 
				196.839,105.286 195.833,107.011 194.979,108.84 194.283,110.764 193.757,112.774 193.503,114.162 193.273,116.305 
				189.249,180.689 189.243,181.322 189.302,181.939 189.421,182.542 189.599,183.125 189.833,183.685 190.117,184.219 
				190.449,184.722 190.827,185.19 191.246,185.624 191.704,186.017 192.197,186.365 192.723,186.666 193.276,186.916 
				193.855,187.111 194.455,187.25 194.866,187.307 195.497,187.34 196.411,187.286 197.07,187.183 197.707,187.021 
				198.316,186.808 198.897,186.544 199.445,186.231 199.96,185.872 200.44,185.472 200.88,185.027 201.28,184.544 201.637,184.021 
				201.948,183.467 202.212,182.876 202.424,182.256 202.585,181.606 202.713,180.699 205.199,150.858 205.385,149.553 
				205.615,148.619 205.922,147.727 206.301,146.879 206.748,146.078 207.262,145.328 207.835,144.634 208.47,143.995 
				209.158,143.416 209.9,142.9 210.69,142.451 211.524,142.071 212.401,141.765 			"/>
			<polyline id="l_1_" fill="#393861" points="177.599,141.397 177.591,141.758 177.608,141.994 177.662,142.343 177.753,142.683 
				177.874,143.009 178.026,143.321 178.207,143.616 178.413,143.894 178.646,144.15 178.9,144.385 179.176,144.595 
				179.472,144.778 179.782,144.934 180.109,145.057 180.449,145.146 180.8,145.204 181.161,145.223 181.5,145.243 181.722,145.278 
				182.045,145.36 182.356,145.479 182.654,145.629 182.937,145.809 183.2,146.016 183.443,146.246 183.665,146.499 183.861,146.77 
				184.031,147.059 184.171,147.363 184.281,147.678 184.357,148.002 184.398,148.334 184.403,148.67 184.366,149.007 
				184.039,150.978 183.859,151.796 183.604,152.564 183.277,153.275 182.882,153.93 182.543,154.379 182.168,154.795 
				181.76,155.174 181.319,155.514 180.849,155.815 180.349,156.076 179.639,156.358 178.881,156.563 178.084,156.689 
				177.246,156.731 173.473,156.731 172.575,156.684 171.99,156.598 171.135,156.397 170.312,156.113 169.523,155.75 
				168.776,155.313 168.075,154.805 167.425,154.237 166.83,153.611 166.296,152.932 165.828,152.206 165.429,151.439 
				165.105,150.634 164.862,149.797 164.705,148.937 164.636,148.055 164.661,147.156 171.058,70.333 171.169,69.548 
				171.309,68.985 171.493,68.448 171.722,67.938 171.99,67.456 172.299,67.004 172.646,66.586 173.026,66.2 173.442,65.852 
				173.889,65.542 174.364,65.271 174.866,65.043 175.394,64.858 175.945,64.719 176.517,64.627 177.308,64.581 177.851,64.61 
				178.205,64.66 178.723,64.779 179.221,64.95 179.698,65.167 180.149,65.43 180.574,65.732 180.969,66.072 181.329,66.448 
				181.653,66.855 181.938,67.292 182.183,67.753 182.381,68.237 182.532,68.741 182.631,69.261 182.678,69.795 182.669,70.337 
				177.599,141.397 			"/>
			<path id="e1_1_" fill="#393861" d="M160.098,103.523l0.693,1.388l0.556,1.449l0.41,1.501l0.252,1.544l0.088,1.574l-0.088,1.595
				l-0.12,1.085l-0.375,2.245l-0.433,1.604l-0.771,2.018l-0.714,1.42l-0.827,1.331l-0.934,1.241l-1.036,1.146l-1.132,1.043
				l-1.223,0.94l-1.31,0.829l-1.389,0.716l-1.466,0.594l-2.061,0.6l-2.174,0.367l-2.274,0.126h-8.586l-1.086,0.058l-0.782,0.119
				l-0.998,0.255l-0.71,0.259l-0.676,0.319l-0.638,0.371l-0.598,0.425l-0.556,0.477l-0.511,0.524l-0.465,0.571l-0.415,0.616
				l-0.364,0.659l-0.401,0.941l-0.3,1.007l-0.192,1.071l-0.047,0.701l0.012,0.464l0.08,0.686l0.152,0.669l0.219,0.649l0.282,0.625
				l0.341,0.594l0.396,0.563l0.445,0.52l0.492,0.478l0.535,0.43l0.573,0.376l0.607,0.318l0.637,0.257l0.663,0.188l0.685,0.115
				l0.7,0.04h17.035l0.512,0.03l0.334,0.054l0.488,0.126l0.471,0.178l0.449,0.227l0.426,0.271l0.397,0.313l0.367,0.349l0.334,0.38
				l0.296,0.412l0.257,0.437l0.211,0.458l0.165,0.476l0.116,0.489l0.061,0.5l0.006,0.506l-0.054,0.51l-0.18,0.814l-0.255,0.761
				l-0.325,0.709l-0.393,0.648l-0.337,0.447l-0.372,0.412l-0.406,0.376l-0.438,0.337l-0.468,0.301L151.469,156l-0.706,0.28
				l-0.751,0.203l-0.795,0.125l-0.831,0.042h-15.221l-1.908-0.108l-1.246-0.188l-1.821-0.448l-1.755-0.635l-1.68-0.81l-1.589-0.972
				l-1.489-1.119l-1.378-1.257l-1.256-1.377l-1.122-1.489l-0.977-1.586l-0.821-1.673l-0.653-1.745l-0.475-1.804l-0.284-1.852
				l-0.084-1.885l0.13-1.906l2.33-18.645l0.55-3.051l0.613-2.174l1.072-2.732l0.987-1.919l1.137-1.798l1.278-1.674l1.415-1.54
				l1.544-1.405l1.666-1.262l1.781-1.112l1.891-0.957l1.994-0.797l2.805-0.803l2.957-0.491l3.097-0.166h4.645l1.595,0.089
				l1.041,0.154l1.523,0.37l1.469,0.522l1.402,0.666l1.329,0.801l1.246,0.924l1.154,1.038l1.053,1.139l0.942,1.233L160.098,103.523
				 M146.304,118.121l0.752-0.203l0.705-0.279l0.497-0.259l0.468-0.3l0.438-0.338l0.406-0.376l0.372-0.411l0.337-0.447l0.394-0.649
				l0.325-0.708l0.254-0.762l0.18-0.814l0.054-0.509l0.004-0.338l-0.043-0.502l-0.099-0.494l-0.148-0.48L151,109.786l-0.24-0.444
				l-0.283-0.42l-0.322-0.393l-0.355-0.359l-0.389-0.325l-0.416-0.283l-0.442-0.242l-0.464-0.195l-0.483-0.144l-0.498-0.09
				l-0.511-0.03h-11.43l-0.832,0.042l-0.794,0.125l-0.752,0.204l-0.706,0.279l-0.496,0.259l-0.469,0.299l-0.438,0.337l-0.404,0.377
				l-0.372,0.412l-0.339,0.447l-0.393,0.649l-0.325,0.708l-0.254,0.761l-0.179,0.814l-0.056,0.509l-0.002,0.339l0.043,0.502
				l0.097,0.493l0.15,0.481l0.197,0.464l0.241,0.445l0.283,0.42l0.32,0.392l0.357,0.359l0.388,0.325l0.416,0.284l0.442,0.242
				l0.464,0.194l0.482,0.144l0.498,0.089l0.512,0.032h11.43l0.833-0.042L146.304,118.121"/>
			<polyline id="s_1_" fill="#393861" points="84.308,129.878 82.816,129.794 81.361,129.551 79.952,129.156 78.598,128.621 
				77.307,127.954 76.088,127.166 74.949,126.265 73.899,125.261 72.947,124.165 72.102,122.983 71.37,121.729 70.763,120.41 
				70.288,119.036 69.952,117.617 69.767,116.162 69.729,115.178 69.812,113.685 69.935,112.574 70.335,110.179 70.98,107.917 
				71.858,105.801 72.662,104.317 73.582,102.928 74.616,101.638 75.756,100.451 76.995,99.375 78.332,98.41 79.758,97.565 
				81.268,96.846 82.856,96.254 85.086,95.675 86.836,95.405 89.262,95.271 104.317,95.271 104.837,95.302 105.342,95.392 
				105.832,95.538 106.305,95.734 106.753,95.98 107.176,96.27 107.57,96.599 107.932,96.962 108.258,97.359 108.546,97.786 
				108.792,98.236 108.991,98.706 109.144,99.194 109.244,99.695 109.289,100.205 109.286,100.549 109.232,101.066 109.053,101.89 
				108.796,102.662 108.469,103.38 108.07,104.038 107.729,104.492 107.353,104.91 106.941,105.291 106.5,105.634 106.025,105.938 
				105.521,106.2 104.808,106.484 104.046,106.691 103.242,106.818 102.4,106.86 87.208,106.86 86.377,106.902 85.584,107.027 
				84.832,107.231 84.127,107.512 83.63,107.771 83.161,108.068 82.725,108.407 82.319,108.782 81.947,109.194 81.61,109.643 
				81.219,110.292 80.893,110.999 80.639,111.76 80.461,112.574 80.407,113.083 80.412,113.59 80.475,114.09 80.59,114.579 
				80.756,115.056 80.968,115.514 81.224,115.95 81.52,116.362 81.854,116.743 82.221,117.092 82.62,117.403 83.046,117.674 
				83.495,117.9 83.965,118.079 84.454,118.204 84.789,118.258 85.299,118.289 95.809,118.289 97.313,118.371 98.779,118.613 
				100.2,119.006 101.564,119.539 102.865,120.203 104.094,120.99 105.241,121.889 106.302,122.892 107.264,123.987 
				108.118,125.168 108.86,126.425 109.479,127.747 109.966,129.126 110.313,130.551 110.511,132.013 110.557,133.005 
				110.49,134.511 110.194,137.47 109.78,140.11 109.09,142.608 108.399,144.378 107.569,146.054 106.604,147.629 105.513,149.098 
				104.3,150.453 102.972,151.692 101.536,152.806 99.999,153.791 98.367,154.641 96.645,155.349 94.842,155.909 92.319,156.417 
				91.012,156.567 89,156.65 69.975,156.65 69.463,156.621 68.965,156.53 68.481,156.388 68.019,156.192 67.576,155.95 
				67.159,155.665 66.771,155.342 66.415,154.981 66.094,154.589 65.811,154.17 65.569,153.725 65.372,153.261 65.223,152.779 
				65.125,152.284 65.082,151.784 65.085,151.445 65.139,150.937 65.318,150.123 65.573,149.359 65.898,148.652 66.291,148.003 
				66.628,147.557 67,147.145 67.406,146.77 67.844,146.432 68.312,146.131 68.81,145.872 69.515,145.594 70.266,145.39 
				71.06,145.264 71.892,145.223 90.95,145.223 92.036,145.164 93.073,144.991 94.058,144.712 94.756,144.431 95.418,144.095 
				96.043,143.706 96.628,143.264 97.169,142.771 97.665,142.231 98.113,141.643 98.512,141.012 98.858,140.34 99.234,139.383 
				99.449,138.619 99.643,137.551 99.688,136.849 99.658,136.156 99.555,135.475 99.379,134.81 99.139,134.169 98.837,133.553 
				98.479,132.97 98.065,132.422 97.603,131.915 97.095,131.452 96.548,131.041 95.963,130.683 95.345,130.385 94.699,130.153 
				94.028,129.988 93.57,129.918 92.869,129.878 84.308,129.878 			"/>
		</g>
	</g>
	<g id="speed_x5F_path_1_">
		<path id="fill_12_" fill="#8EE630" d="M3.317,153.93l1.342-2.174h2.5l32.157,5.782h-2.501L3.317,153.93z M40.978,151.171
			l1.342-1.466l-17.154-1.017L40.978,151.171z"/>
		
			<path id="stroke_2_" fill="none" stroke="#8EE630" stroke-width="1.17" stroke-linecap="round" stroke-linejoin="round" stroke-miterlimit="10" d="
			M3.317,153.93l1.342-2.174h2.5l32.157,5.782h-2.501L3.317,153.93z M40.978,151.171l1.342-1.466l-17.154-1.017L40.978,151.171z"/>
	</g>
	<g id="logo_x5F_hare_1_">
		<path id="depth" fill="#8EE630" d="M64.901,76.903l-0.464-0.101l-0.234-0.011l-0.239,0.018l-0.239,0.046l-0.244,0.077
			l-0.244,0.108l-0.025,0.015l-0.003,0.001l-0.013-0.017l-0.415-0.455l-0.331-0.298l-0.33-0.238l-0.248-0.14l-0.249-0.104
			l-0.251-0.07l-0.251-0.035h-2.502h-0.254l-0.257,0.038l-0.174,0.044l-0.175,0.061l-0.932,0.414l-0.47,0.282l-0.275,0.212
			l-0.24,0.235l-0.205,0.266l-0.167,0.3l-0.129,0.338l-0.089,0.383l-0.047,0.43l-0.003,0.482l0.041,0.541l0.15,0.929l0.374,1.485
			l1.384,3.956l2.684,6.338l2.112,4.271l2.375,3.941l3.401,4.687l3.072,3.967l-0.213,1.26l-0.009,0.05l-0.627,3.72l-0.564-1.273
			l-1.497-2.798l-1.774-2.731l-1.927-2.474l-2.352-2.493l-2.194-1.902l-2.483-1.737l-2.778-1.491l-1.502-0.63l-2.398-0.771
			l-3.245-0.643l-3.19-0.21l-3.095,0.214l-2.959,0.625l-2.105,0.73l-1.99,0.953l-1.856,1.168l-1.706,1.381l-1.54,1.587l-1.354,1.79
			l-0.793,1.303l-0.699,1.39l-0.598,1.476l-0.495,1.561l-0.384,1.641l-0.271,1.723l-0.149,1.803l-0.023,1.765l-0.001,0.117
			l-0.429-0.083l-0.431-0.034l-0.463,0.017l-0.297,0.04l-0.285,0.063l-0.237,0.081l-0.235,0.114l-0.312,0.2l-0.379,0.313
			l-0.437,0.446l-0.539,0.667l-0.575,0.853l-0.468,0.809l-0.328,0.681l-0.233,0.607l-0.142,0.476l-0.087,0.403l-0.046,0.321
			l-0.02,0.318l0.002,0.234l0.021,0.228l0.039,0.224l0.037,0.144l0.047,0.141l0.122,0.293l0.209,0.398l0.319,0.506l0.452,0.593
			l0.438,0.478l0.471,0.422l0.41,0.288l0.331,0.175l0.248,0.096l0.165,0.045l0.162,0.027l0.336,0.02h2.501l0.446-0.03l0.467-0.09
			l0.475-0.147l0.475-0.205l0.461-0.263l0.438-0.319l0.328-0.298l0.3-0.334l0.269-0.368l0.112-0.185l0.013,0.014l0.542,0.545
			l0.479,0.588l0.399,0.584l0.386,0.688l0.303,0.664l0.395,1.114l0.273,0.917l0.165,0.629l0.223,1.267l0.237,2.412l0.17,5.209
			l-0.018,2.498l9.738,4.9l2.688,3.319l-5.016,3.887l-0.729,2.622l-0.267,1.304l-0.066,0.551l-0.011,0.274l0.002,0.081l0.016,0.142
			l0.013,0.064l0.019,0.063l0.049,0.124l0.068,0.117l0.082,0.115l0.148,0.162l0.174,0.152l0.26,0.187l0.424,0.242l0.859,0.364
			l0.39,0.126h2.501l3.536-3.354l1.776-2.568l0.126,0.077l0.551,0.263l0.473,0.162l0.362,0.078l0.36,0.028h2.501l0.236-0.014
			l0.23-0.045l0.222-0.077l0.214-0.113l0.201-0.153l0.186-0.195l0.171-0.241l0.151-0.289l0.121-0.319l0.079-0.323l0.043-0.33
			l0.007-0.332l-0.023-0.332l-0.054-0.332l-0.078-0.329l-0.158-0.487l-0.199-0.473l-0.311-0.6l-0.512-0.807l-0.773-0.99
			l-0.343-0.375l-0.276-0.169l0.638-1.33l3.112-8.875l1.497-2.241l1.343-1.041l1.367-0.852l1.214-0.584l1.225-0.426l1.057-0.235
			l0.576-0.061h1.898l1.115-0.37l1.077-0.495l0.981-0.58l0.986-0.706l1.113-0.947l1.006-1.037l0.004-0.028l0.012-0.038l0.02-0.043
			l0.064-0.113l0.209-0.304l1.962-2.344l0.556-0.619l1.13,0.523l1.549,0.586l0.318,0.086l0.302,0.038l0.287-0.001l0.362-0.049
			l0.336-0.092l0.598-0.24l0.559-0.231l0.16-0.037l0.099-0.007l0.096,0.008l0.088,0.027l0.041,0.02l0.041,0.027l0.04,0.03
			l0.039,0.037l0.036,0.043l0.069,0.106l0.073,0.109l0.094,0.11l0.101,0.094l0.076,0.07l0.288,0.208l0.417,0.234l0.448,0.182
			l0.354,0.097l0.253,0.039l0.231,0.004l0.138-0.02l0.123-0.038l0.055-0.026l0.053-0.031l0.044-0.036l0.041-0.042l0.033-0.047
			l0.03-0.054l0.022-0.059l0.016-0.065l0.01-0.07l0.002-0.077l-0.004-0.084l-0.014-0.091l-0.021-0.098l-0.066-0.215l-0.095-0.295
			l-0.031-0.145l-0.007-0.059l-0.002-0.049l0.004-0.041l0.011-0.034l0.014-0.025l0.021-0.021l0.024-0.013l0.029-0.007l0.033-0.002
			l0.039,0.004l0.087,0.02l1.018,0.32l0.245,0.015l0.165-0.014l0.165-0.04l0.163-0.066l0.159-0.101l0.356,0.221h1.492l0.166-0.014
			l0.164-0.04l0.162-0.066l0.159-0.101l0.154-0.134l0.147-0.177l0.07-0.104l0.136-0.242l0.075-0.172l0.063-0.179l0.091-0.375
			l0.044-0.397l0.004-0.415l-0.035-0.43l-0.114-0.667l-0.18-0.683l-0.317-0.913l-0.587-1.326l-1.212-2.167l-0.606-0.924
			l-0.225-1.059l-0.118-0.319l-0.383-0.831l-0.812-1.603l-0.31-0.544l-0.463-0.661l-0.515-0.593l-0.56-0.53l-0.755-0.583
			l-0.974-0.604l-2.095-0.975l-2.161-0.813l-0.36-0.032l-0.955-3.846l-2.494-16.771l-0.731-2.157l-0.994-2.372l-0.798-1.541
			l-0.724-1.137l-0.589-0.747l-0.411-0.428l-0.426-0.361l-0.44-0.284l-0.451-0.197l-0.463-0.101l-0.235-0.011h-2.5 M44.8,117.711
			l0.45,0.107l0.19,0.046l0.594,0.219l0.544,0.278l0.499,0.336l0.456,0.386l0.413,0.435l0.373,0.476l0.334,0.516l0.434,0.834
			l0.358,0.896l0.289,0.942l0.288,1.306l0.224,1.657l0.107,1.938l-0.012,1.492l-0.071,1.306l-0.612,7.645l-2.895,6.375l-7.923-4.863
			l0.228-8.558l0.109-1.335l0.17-1.33l0.57-2.764l0.633-2.17l0.607-1.573l0.589-1.2l0.507-0.834l0.565-0.755l0.63-0.656l0.455-0.372
			l0.486-0.313l0.516-0.248l0.344-0.11"/>
		
			<path id="stroke" fill="none" stroke="#8EE630" stroke-width="1.17" stroke-linecap="round" stroke-linejoin="round" stroke-miterlimit="10" d="
			M63.211,77.056l0.025-0.015l0.244-0.108l0.244-0.077l0.239-0.046l0.239-0.018l0.234,0.011l0.464,0.101l0.452,0.197l0.438,0.284
			l0.426,0.361l0.411,0.428l0.588,0.747l0.725,1.137l0.799,1.541l0.994,2.372l0.73,2.157l2.494,16.771l0.955,3.846l0.361,0.032
			l2.161,0.813l2.093,0.975l0.974,0.604l0.756,0.583l0.561,0.53l0.514,0.593l0.463,0.661l0.311,0.544l0.812,1.603l0.382,0.831
			l0.119,0.319l0.225,1.059l0.606,0.924l1.211,2.167l0.587,1.326l0.318,0.913l0.179,0.683l0.115,0.667l0.033,0.43l-0.003,0.415
			l-0.045,0.397l-0.09,0.375l-0.063,0.179l-0.075,0.172l-0.135,0.242l-0.07,0.104l-0.147,0.177l-0.154,0.134l-0.159,0.101
			l-0.163,0.066l-0.165,0.04l-0.165,0.014l-0.245-0.015l-1.018-0.32l-0.087-0.02l-0.039-0.004l-0.033,0.002l-0.029,0.007
			l-0.024,0.013l-0.021,0.021l-0.014,0.025l-0.011,0.034l-0.004,0.041l0.002,0.049l0.007,0.059l0.031,0.145l0.095,0.295l0.066,0.215
			l0.021,0.098l0.014,0.091l0.004,0.084l-0.002,0.077l-0.01,0.07l-0.016,0.065l-0.022,0.059l-0.03,0.054l-0.033,0.047l-0.041,0.042
			l-0.044,0.036l-0.053,0.031l-0.055,0.026l-0.123,0.038l-0.138,0.02l-0.231-0.004l-0.253-0.039l-0.354-0.097l-0.448-0.182
			l-0.417-0.234l-0.288-0.208l-0.076-0.07l-0.101-0.094l-0.094-0.11l-0.073-0.109l-0.069-0.106l-0.036-0.043l-0.039-0.037
			l-0.04-0.03l-0.041-0.027l-0.041-0.02l-0.088-0.027l-0.096-0.008l-0.099,0.007l-0.16,0.037l-0.559,0.231l-0.598,0.24l-0.336,0.092
			l-0.362,0.049l-0.287,0.001l-0.302-0.038l-0.318-0.086l-1.549-0.586l-1.13-0.523l-0.634-0.293l-0.717-0.425l-0.3-0.228
			l-1.406,1.564l-1.962,2.344l-0.209,0.304l-0.063,0.113l-0.02,0.043l-0.013,0.038l-0.003,0.028l-1.007,1.037l-1.112,0.947
			l-0.986,0.706l-0.981,0.58l-1.077,0.495l-1.115,0.37l-0.708-0.055l-0.708,0.004l-1.06,0.111l-1.057,0.235l-1.226,0.426
			l-1.213,0.584l-1.368,0.852l-1.342,1.041l-1.497,2.241l-3.112,8.875l-0.637,1.33h2.5l0.276,0.169l0.343,0.375l0.773,0.99
			l0.512,0.807l0.311,0.6l0.199,0.473l0.158,0.487l0.078,0.329l0.054,0.332l0.023,0.332l-0.007,0.332l-0.043,0.33l-0.079,0.323
			l-0.121,0.319l-0.151,0.289l-0.171,0.241l-0.186,0.195l-0.201,0.153l-0.214,0.113l-0.222,0.077l-0.23,0.045l-0.236,0.014h-2.501
			l-0.36-0.028l-0.362-0.078l-0.473-0.162l-0.551-0.263l-0.126-0.077l-1.776,2.568l-3.536,3.354H40.57l-0.39-0.126l-0.859-0.364
			l-0.424-0.242l-0.26-0.187l-0.174-0.152l-0.148-0.162l-0.082-0.115l-0.068-0.117l-0.049-0.124l-0.019-0.063l-0.013-0.064
			l-0.016-0.142l-0.002-0.081l0.011-0.274l0.066-0.551l0.267-1.304l0.729-2.622l5.016-3.887l-2.688-3.319l-9.738-4.9l0.018-2.498
			l-0.17-5.209l-0.237-2.412l-0.223-1.267l-0.165-0.629l-0.273-0.917l-0.395-1.114l-0.303-0.664l-0.386-0.688l-0.399-0.584
			l-0.479-0.588l-0.542-0.545l-0.013-0.014l-0.112,0.185l-0.269,0.368l-0.3,0.334l-0.328,0.298l-0.438,0.319l-0.461,0.263
			l-0.475,0.205l-0.475,0.147l-0.467,0.09l-0.446,0.03H21.89l-0.336-0.02l-0.162-0.027l-0.165-0.045l-0.248-0.096l-0.331-0.175
			l-0.41-0.288l-0.471-0.422l-0.438-0.478l-0.452-0.593l-0.319-0.506l-0.209-0.398l-0.122-0.293l-0.047-0.141l-0.037-0.144
			l-0.039-0.224l-0.021-0.228l-0.002-0.234l0.02-0.318l0.046-0.321l0.087-0.403l0.142-0.476l0.233-0.607l0.328-0.681l0.468-0.809
			l0.575-0.853l0.539-0.667l0.437-0.446l0.379-0.313l0.312-0.2l0.235-0.114l0.237-0.081l0.285-0.063l0.297-0.04l0.463-0.017
			l0.431,0.034l0.429,0.083l0.001-0.117l0.023-1.765l0.149-1.803l0.271-1.723l0.384-1.641l0.495-1.561l0.598-1.476l0.699-1.39
			l0.793-1.303l1.354-1.79l1.54-1.587l1.706-1.381l1.856-1.168l1.99-0.953l2.105-0.73l2.959-0.625l3.095-0.214l3.19,0.21
			l3.245,0.643l2.398,0.771l1.502,0.63l2.778,1.491l2.483,1.737l2.194,1.902l2.352,2.493l1.927,2.474l1.774,2.731l1.497,2.798
			l0.564,1.273l0.627-3.72l0.009-0.05l0.213-1.26l-3.072-3.967l-3.401-4.687l-2.375-3.941l-2.112-4.271l-2.684-6.338l-1.384-3.956
			l-0.374-1.485l-0.15-0.929l-0.041-0.541l0.003-0.482l0.047-0.43l0.089-0.383l0.129-0.338l0.167-0.3l0.205-0.266l0.24-0.235
			l0.275-0.212l0.47-0.282l0.932-0.414l0.175-0.061l0.174-0.044l0.257-0.038h0.254h2.502l0.251,0.035l0.251,0.07l0.249,0.104
			l0.248,0.14l0.33,0.238l0.331,0.298l0.415,0.455l0.013,0.017L63.211,77.056z M46.219,146.101l0.545-1.2l2.895-6.375l0.612-7.645
			l0.071-1.306l0.012-1.492l-0.107-1.938l-0.224-1.657l-0.288-1.306l-0.289-0.942l-0.358-0.896l-0.434-0.834l-0.334-0.516
			l-0.373-0.476l-0.413-0.435l-0.456-0.386l-0.499-0.336l-0.544-0.278l-0.594-0.219l-0.19-0.046l-0.45-0.107l-0.649-0.074
			l-0.615,0.017l-0.581,0.1l-0.549,0.176l-0.516,0.248l-0.485,0.313l-0.456,0.372l-0.629,0.656l-0.565,0.755l-0.507,0.834l-0.59,1.2
			l-0.606,1.573l-0.633,2.17l-0.572,2.764l-0.17,1.33l-0.108,1.335l-0.229,8.558l2.461,1.511L46.219,146.101z"/>
	</g>
</g>
</svg>
