<svg xmlns="http://www.w3.org/2000/svg" width="1080" height="1080" viewBox="0 0 1080 1080">
  <path fill="none" stroke="#96D926" stroke-width="16" stroke-miterlimit="10" d="M434.532 1020V780h210v240"/>
  <path fill="#EEE" d="M434.532 780V600c0-16.5 13.5-30 30-30h150c16.5 0 30 13.5 30 30v180"/>
  <path fill="none" stroke="#96D926" stroke-width="16" stroke-miterlimit="10" d="M434.532 780V600c0-16.5 13.5-30 30-30h150c16.5 0 30 13.5 30 30v180"/>
  <path fill="none" stroke="#96D926" stroke-width="32" stroke-linecap="round" stroke-miterlimit="10" d="M420 780h240"/>
  <path fill="none" stroke="#3726A6" stroke-width="60" stroke-linecap="round" stroke-miterlimit="10" d="M540 510v180M660 990V863.333c0-33-24.673-70.966-54.829-84.368l-10.342-4.597c-30.156-13.402-79.502-13.402-109.658 0l-10.342 4.597C444.673 792.367 420 830.333 420 863.333V990M450 510l-59.13 98.551C373.892 636.848 380.25 660 405 660h45M630 510l59.13 98.551C706.108 636.848 699.75 660 675 660h-45"/>
  <circle fill="#4A44F2" cx="540" cy="405" r="45"/>
  <g>
    <path fill="none" stroke="#96D926" stroke-width="16" stroke-linecap="round" stroke-miterlimit="10" d="M900.936 690c33 0 60 27 60 60v210c0 33-27 60-60 60H180c-33 0-60-27-60-60V750c0-33 27-60 60-60h720.936zM60 690h960"/>
  </g>
  <g>
    <path fill="#B0F235" d="M144 144c0 6.6-5.4 12-12 12H84c-6.6 0-12-5.4-12-12V60c0-6.6 5.4-12 12-12h48c6.6 0 12 5.4 12 12v84zM396 138v18M378 156h36M468 126c0 6.6-5.4 12-12 12H336c-6.6 0-12-5.4-12-12V60c0-6.6 5.4-12 12-12h120c6.6 0 12 5.4 12 12v66zM756 126c0 6.6-5.4 12-12 12H624c-6.6 0-12-5.4-12-12V60c0-6.6 5.4-12 12-12h120c6.6 0 12 5.4 12 12v66z"/>
    <circle fill="#B0F235" cx="108" cy="147" r="4.5"/>
    <g fill="#B0F235">
      <path d="M882 84V66c0-9.941 7.112-18 15.884-18H1001c8.837 0 8.042-.179 1.407 5.657-5.616 4.939-9.23 12.663-9.23 21.343s3.614 16.403 9.23 21.343c6.635 5.836 7.43 5.657-1.407 5.657H897.884C889.112 102 882 93.942 882 84zM897 144v-18c0-9.942 7.112-18 15.884-18H1016c8.837 0 8.042-.179 1.407 5.657-5.616 4.939-9.23 12.663-9.23 21.343s3.614 16.403 9.23 21.343c6.635 5.836 7.43 5.657-1.407 5.657H912.884c-8.772 0-15.884-8.058-15.884-18z"/>
    </g>
    <path fill="#B0F235" d="M756 150c0 3.3-2.7 6-6 6H618c-3.3 0-6-2.7-6-6v-6c0-3.3 2.7-6 6-6h132c3.3 0 6 2.7 6 6v6z"/>
  </g>
  <g>
    <path fill="none" stroke="#3726A6" stroke-width="8" stroke-miterlimit="10" d="M132 156c0 6.6-5.4 12-12 12H72c-6.6 0-12-5.4-12-12V72c0-6.6 5.4-12 12-12h48c6.6 0 12 5.4 12 12v84zM384 150v18"/>
    <path fill="none" stroke="#3726A6" stroke-width="8" stroke-linecap="round" stroke-miterlimit="10" d="M366 168h36"/>
    <path fill="none" stroke="#3726A6" stroke-width="8" stroke-miterlimit="10" d="M456 138c0 6.6-5.4 12-12 12H324c-6.6 0-12-5.4-12-12V72c0-6.6 5.4-12 12-12h120c6.6 0 12 5.4 12 12v66zM744 138c0 6.6-5.4 12-12 12H612c-6.6 0-12-5.4-12-12V72c0-6.6 5.4-12 12-12h120c6.6 0 12 5.4 12 12v66z"/>
    <circle fill="none" stroke="#3726A6" stroke-width="8" stroke-miterlimit="10" cx="96" cy="159" r="4.5"/>
    <g fill="none" stroke="#3726A6" stroke-width="8" stroke-linecap="round" stroke-linejoin="round" stroke-miterlimit="10">
      <path d="M885.884 114C877.112 114 870 105.942 870 96V78c0-9.941 7.112-18 15.884-18H1005c-13.156 0-23.823 12.088-23.823 27 0 14.911 10.667 27 23.823 27H885.884zM900.884 174c-8.771 0-15.884-8.058-15.884-18v-18c0-9.942 7.112-18 15.884-18H1020c-13.156 0-23.823 12.089-23.823 27s10.667 27 23.823 27H900.884z"/>
    </g>
    <path fill="none" stroke="#3726A6" stroke-width="8" stroke-miterlimit="10" d="M744 162c0 3.3-2.7 6-6 6H606c-3.3 0-6-2.7-6-6v-6c0-3.3 2.7-6 6-6h132c3.3 0 6 2.7 6 6v6z"/>
  </g>
  <g fill="none" stroke="#96D926" stroke-width="8" stroke-linecap="round" stroke-miterlimit="10">
    <path d="M96 210v90M384 210v90M672 210v90M945 210v90M96 300h849M540 300v30"/>
  </g>
</svg>
