<svg xmlns="http://www.w3.org/2000/svg" width="1080" height="1080" viewBox="0 0 1080 1080">
  <path fill="#B0F235" d="M732 703.5L462 738l30-276-60-414 300 34.5L1032 48l-60 414 30 276z"/>
  <path fill="none" stroke="#4A44F2" stroke-width="8" stroke-linejoin="round" stroke-miterlimit="10" d="M720 715.5L450 750l30-276-60-414 300 34.5L1020 60l-60 414 30 276z"/>
  <g fill="none" stroke="#96D926" stroke-width="8" stroke-linecap="round" stroke-miterlimit="10">
    <path d="M700 140.305l-11.942-1.171"/>
    <path stroke-dasharray="25.4297,25.4297" d="M662.749 136.651l-189.812-18.614"/>
    <path d="M460.282 116.796l-11.942-1.171"/>
  </g>
  <g fill="none" stroke="#96D926" stroke-width="8" stroke-linecap="round" stroke-miterlimit="10">
    <path d="M700 188.42l-11.961-.967"/>
    <path stroke-dasharray="24.5295,24.5295" d="M663.59 185.477l-183.374-14.825"/>
    <path d="M467.991 169.664l-11.961-.967"/>
  </g>
  <g fill="none" stroke="#96D926" stroke-width="8" stroke-linecap="round" stroke-miterlimit="10">
    <path d="M700 236.548l-11.976-.76"/>
    <path stroke-dasharray="23.6427,23.6427" d="M664.429 234.292l-176.965-11.221"/>
    <path d="M475.666 222.323l-11.976-.76"/>
  </g>
  <g fill="none" stroke="#96D926" stroke-width="8" stroke-linecap="round" stroke-miterlimit="10">
    <path d="M700 284.664l-11.987-.547"/>
    <path stroke-dasharray="22.7675,22.7675" d="M665.269 283.08l-170.58-7.781"/>
    <path d="M483.317 274.78l-11.987-.547"/>
  </g>
  <g fill="none" stroke="#96D926" stroke-width="8" stroke-linecap="round" stroke-miterlimit="10">
    <path d="M700 332.792l-11.995-.331"/>
    <path stroke-dasharray="21.906,21.906" d="M666.107 331.857l-164.233-4.528"/>
    <path d="M490.925 327.027l-11.995-.331"/>
  </g>
  <g fill="none" stroke="#96D926" stroke-width="8" stroke-linecap="round" stroke-miterlimit="10">
    <path d="M700 380.932l-12-.113"/>
    <path stroke-dasharray="27.0728,27.0728" d="M660.929 380.567l-148.894-1.388"/>
    <path d="M498.5 379.053l-12-.113"/>
  </g>
  <g fill="none" stroke="#96D926" stroke-width="8" stroke-linecap="round" stroke-miterlimit="10">
    <path d="M700 429.068l-12 .113"/>
    <path stroke-dasharray="25.9942,25.9942" d="M662.008 429.425l-142.962 1.343"/>
    <path d="M506.049 430.89l-11.999.112"/>
  </g>
  <g fill="none" stroke="#96D926" stroke-width="8" stroke-linecap="round" stroke-miterlimit="10">
    <path d="M700 477.22l-11.995.339"/>
    <path stroke-dasharray="25.2699,25.2699" d="M662.745 478.271l-138.93 3.923"/>
    <path d="M511.186 482.551l-11.996.339"/>
  </g>
  <g fill="none" stroke="#96D926" stroke-width="8" stroke-linecap="round" stroke-miterlimit="10">
    <path d="M700 525.381l-11.986.568"/>
    <path stroke-dasharray="26.1032,26.1032" d="M661.939 527.188l-143.406 6.804"/>
    <path d="M505.496 534.611l-11.986.569"/>
  </g>
  <g fill="none" stroke="#96D926" stroke-width="8" stroke-linecap="round" stroke-miterlimit="10">
    <path d="M700 573.532l-11.973.804"/>
    <path stroke-dasharray="26.9553,26.9553" d="M661.132 576.14l-147.921 9.924"/>
    <path d="M499.764 586.967l-11.974.803"/>
  </g>
  <g fill="none" stroke="#96D926" stroke-width="8" stroke-linecap="round" stroke-miterlimit="10">
    <path d="M700 621.693l-11.955 1.04"/>
    <path stroke-dasharray="21.6426,21.6426" d="M666.484 624.609L504.775 638.68"/>
    <path d="M493.995 639.618l-11.955 1.04"/>
  </g>
  <g fill="none" stroke="#96D926" stroke-width="8" stroke-linecap="round" stroke-miterlimit="10">
    <path d="M700 669.869l-11.932 1.28"/>
    <path stroke-dasharray="22.336,22.336" d="M665.859 673.531l-166.563 17.867"/>
    <path d="M488.191 692.589l-11.931 1.28"/>
  </g>
  <g>
    <g fill="none" stroke="#96D926" stroke-width="8" stroke-linecap="round" stroke-miterlimit="10">
      <path d="M991.66 115.625l-11.942 1.171"/>
      <path stroke-dasharray="25.4297,25.4297" d="M954.409 119.278l-189.812 18.615"/>
      <path d="M751.942 139.134L740 140.305"/>
    </g>
    <g fill="none" stroke="#96D926" stroke-width="8" stroke-linecap="round" stroke-miterlimit="10">
      <path d="M983.97 168.697l-11.961.967"/>
      <path stroke-dasharray="24.5295,24.5295" d="M947.559 171.641l-183.373 14.824"/>
      <path d="M751.961 187.453L740 188.42"/>
    </g>
    <g fill="none" stroke="#96D926" stroke-width="8" stroke-linecap="round" stroke-miterlimit="10">
      <path d="M976.31 221.563l-11.976.76"/>
      <path stroke-dasharray="23.6427,23.6427" d="M940.738 223.819L763.773 235.04"/>
      <path d="M751.976 235.788l-11.976.76"/>
    </g>
    <g fill="none" stroke="#96D926" stroke-width="8" stroke-linecap="round" stroke-miterlimit="10">
      <path d="M968.67 274.233l-11.987.547"/>
      <path stroke-dasharray="22.7675,22.7675" d="M933.938 275.817l-170.579 7.782"/>
      <path d="M751.987 284.117l-11.987.547"/>
    </g>
    <g fill="none" stroke="#96D926" stroke-width="8" stroke-linecap="round" stroke-miterlimit="10">
      <path d="M961.07 326.696l-11.995.331"/>
      <path stroke-dasharray="21.906,21.906" d="M927.178 327.631l-164.234 4.528"/>
      <path d="M751.995 332.461l-11.995.331"/>
    </g>
    <g fill="none" stroke="#96D926" stroke-width="8" stroke-linecap="round" stroke-miterlimit="10">
      <path d="M953.5 378.94l-12 .113"/>
      <path stroke-dasharray="27.0728,27.0728" d="M914.429 379.305l-148.894 1.388"/>
      <path d="M752 380.819l-12 .113"/>
    </g>
    <g fill="none" stroke="#96D926" stroke-width="8" stroke-linecap="round" stroke-miterlimit="10">
      <path d="M945.95 431.002l-11.999-.112"/>
      <path stroke-dasharray="25.9942,25.9942" d="M907.958 430.646l-142.962-1.343"/>
      <path d="M752 429.181l-12-.113"/>
    </g>
    <g fill="none" stroke="#96D926" stroke-width="8" stroke-linecap="round" stroke-miterlimit="10">
      <path d="M940.81 482.89l-11.996-.339"/>
      <path stroke-dasharray="25.2699,25.2699" d="M903.555 481.838l-138.93-3.923"/>
      <path d="M751.995 477.559L740 477.22"/>
    </g>
    <g fill="none" stroke="#96D926" stroke-width="8" stroke-linecap="round" stroke-miterlimit="10">
      <path d="M946.49 535.18l-11.986-.569"/>
      <path stroke-dasharray="26.1032,26.1032" d="M908.43 533.373l-143.407-6.805"/>
      <path d="M751.986 525.949L740 525.381"/>
    </g>
    <g fill="none" stroke="#96D926" stroke-width="8" stroke-linecap="round" stroke-miterlimit="10">
      <path d="M952.21 587.77l-11.974-.803"/>
      <path stroke-dasharray="26.9553,26.9553" d="M913.342 585.162l-147.922-9.925"/>
      <path d="M751.973 574.336L740 573.532"/>
    </g>
    <g fill="none" stroke="#96D926" stroke-width="8" stroke-linecap="round" stroke-miterlimit="10">
      <path d="M957.96 640.658l-11.955-1.04"/>
      <path stroke-dasharray="21.6426,21.6426" d="M924.444 637.742l-161.709-14.07"/>
      <path d="M751.955 622.733L740 621.693"/>
    </g>
    <g fill="none" stroke="#96D926" stroke-width="8" stroke-linecap="round" stroke-miterlimit="10">
      <path d="M963.74 693.869l-11.931-1.28"/>
      <path stroke-dasharray="22.336,22.336" d="M929.6 690.207L763.036 672.34"/>
      <path d="M751.932 671.149L740 669.869"/>
    </g>
  </g>
  <g>
    <path fill="none" stroke="#3726A6" stroke-width="60" stroke-linecap="round" stroke-miterlimit="10" d="M720 510v180M810 990V863.333c0-33-20.25-72-45-86.667-24.75-14.666-65.25-14.666-90 0-24.75 14.667-45 53.667-45 86.667V990M630 510l-54 72c-19.8 26.4-46.027 22.932-58.283-7.709L480 480M810 510l54 72c19.8 26.4 46.027 22.932 58.283-7.709L960 480"/>
    <circle fill="#4A44F2" cx="720" cy="405" r="45"/>
  </g>
  <g fill="none" stroke="#96D926" stroke-width="16" stroke-miterlimit="10">
    <path stroke-linecap="round" d="M60 720h360"/>
    <path d="M90 1020V720h300v300"/>
  </g>
  <g>
    <path fill="none" stroke="#EEE" stroke-width="4" stroke-linecap="round" stroke-miterlimit="10" d="M198.083 616.229c-4.484-8.42 13.168-17.821 8.684-26.241-4.484-8.422-22.138.979-26.622-7.443-4.485-8.422 13.167-17.822 8.682-26.244M225.642 601.7c-4.22-16.366 15.146-21.36 10.927-37.726-4.222-16.368-23.588-11.373-27.809-27.741-4.222-16.368 15.145-21.362 10.924-37.73M231.174 612.633c4.999-9.388 22.652.013 27.651-9.375 5.001-9.39-12.652-18.79-7.651-28.18 5-9.39 22.652.012 27.652-9.378"/>
  </g>
  <g>
    <path fill="#EEE" d="M282.008 696.075c.82 8.209-5.258 14.926-13.508 14.926h-78c-8.25 0-14.328-6.717-13.508-14.926l6.016-60.148c.82-8.209 8.242-14.926 16.492-14.926h60c8.25 0 15.672 6.717 16.492 14.926l6.016 60.148z"/>
    <path fill="none" stroke="#96D926" stroke-width="4" stroke-linecap="round" stroke-miterlimit="10" d="M282.008 696.075c.82 8.209-5.258 14.926-13.508 14.926h-78c-8.25 0-14.328-6.717-13.508-14.926l6.016-60.148c.82-8.209 8.242-14.926 16.492-14.926h60c8.25 0 15.672 6.717 16.492 14.926l6.016 60.148z"/>
    <g>
      <path fill="none" stroke="#96D926" stroke-width="4" stroke-linecap="round" stroke-miterlimit="10" d="M286.323 654.492c-3.936 7.251-7.827 6.467-8.647-1.742l-1.684-16.823c-.82-8.209 5.258-14.926 13.508-14.926h0c8.25 0 11.78 5.933 7.845 13.184l-11.022 20.307z"/>
    </g>
  </g>
  <g fill="none" stroke="#96D926" stroke-width="16" stroke-miterlimit="10">
    <path d="M569.532 1020V780h300v240"/>
    <path stroke-linecap="round" d="M540 780h360"/>
  </g>
</svg>
