<svg xmlns="http://www.w3.org/2000/svg" width="1080" height="1080" viewBox="0 0 1080 1080">
  <path fill="#EEE" stroke="#96D926" stroke-width="8" stroke-linecap="round" stroke-linejoin="round" stroke-miterlimit="10" d="M60 60h960v480H60z"/>
  <path fill="#B0F235" d="M237.94 498c-8.8 0-16-7.2-16-16v-28c0-8.8 7.2-16 16-16h28.119c8.8 0 16 7.2 16 16v28c0 8.8-7.2 16-16 16H237.94zM237.94 258c-8.8 0-16-7.2-16-16v-28c0-8.8 7.2-16 16-16h147.94c8.8 0 16 7.2 16 16v28c0 8.8-7.2 16-16 16H237.94zM718.12 498c-8.8 0-16-7.2-16-16v-28c0-8.8 7.2-16 16-16h27.821c8.8 0 16 7.2 16 16v28c0 8.8-7.2 16-16 16H718.12zM118.12 498c-8.8 0-16-7.2-16-16v-28c0-8.8 7.2-16 16-16h27.82c8.8 0 16 7.2 16 16v28c0 8.8-7.2 16-16 16h-27.82zM477.88 258c-8.8 0-16-7.2-16-16v-28c0-8.8 7.2-16 16-16H506c8.8 0 16 7.2 16 16v28c0 8.8-7.2 16-16 16h-28.12zM718.12 378c-8.8 0-16-7.2-16-16v-28c0-8.8 7.2-16 16-16h27.821c8.8 0 16 7.2 16 16v28c0 8.8-7.2 16-16 16H718.12zM718.12 258c-8.8 0-16-7.2-16-16v-28c0-8.8 7.2-16 16-16h27.821c8.8 0 16 7.2 16 16v28c0 8.8-7.2 16-16 16H718.12zM598 258c-8.8 0-16-7.2-16-16v-28c0-8.8 7.2-16 16-16h28.12c8.8 0 16 7.2 16 16v28c0 8.8-7.2 16-16 16H598zM237.94 378c-8.8 0-16-7.2-16-16v-28c0-8.8 7.2-16 16-16h28.119c8.8 0 16 7.2 16 16v28c0 8.8-7.2 16-16 16H237.94zM598 498c-8.8 0-16-7.2-16-16v-28c0-8.8 7.2-16 16-16h28.12c8.8 0 16 7.2 16 16v28c0 8.8-7.2 16-16 16H598zM477.88 498c-8.8 0-16-7.2-16-16v-28c0-8.8 7.2-16 16-16H506c8.8 0 16 7.2 16 16v28c0 8.8-7.2 16-16 16h-28.12zM598 378c-8.8 0-16-7.2-16-16v-28c0-8.8 7.2-16 16-16h28.12c8.8 0 16 7.2 16 16v28c0 8.8-7.2 16-16 16H598zM118.12 258c-8.8 0-16-7.2-16-16v-28c0-8.8 7.2-16 16-16h27.82c8.8 0 16 7.2 16 16v28c0 8.8-7.2 16-16 16h-27.82zM477.88 378c-8.8 0-16-7.2-16-16v-28c0-8.8 7.2-16 16-16H506c8.8 0 16 7.2 16 16v28c0 8.8-7.2 16-16 16h-28.12zM837.941 378c-8.8 0-16-7.2-16-16v-28c0-8.8 7.2-16 16-16h28.118c8.8 0 16 7.2 16 16v28c0 8.8-7.2 16-16 16h-28.118zM358.06 498c-8.8 0-16-7.2-16-16v-28c0-8.8 7.2-16 16-16h27.82c8.8 0 16 7.2 16 16v28c0 8.8-7.2 16-16 16h-27.82zM358.06 378c-8.8 0-16-7.2-16-16v-28c0-8.8 7.2-16 16-16h27.82c8.8 0 16 7.2 16 16v28c0 8.8-7.2 16-16 16h-27.82zM958.06 138c-8.8 0-16-7.2-16-16V94c0-8.8 7.2-16 16-16H986c8.8 0 16 7.2 16 16v28c0 8.8-7.2 16-16 16h-27.94zM477.88 138c-8.8 0-16-7.2-16-16V94c0-8.8 7.2-16 16-16H506c8.8 0 16 7.2 16 16v28c0 8.8-7.2 16-16 16h-28.12zM837.941 138c-8.8 0-16-7.2-16-16V94c0-8.8 7.2-16 16-16h28.118c8.8 0 16 7.2 16 16v28c0 8.8-7.2 16-16 16h-28.118zM837.941 258c-8.8 0-16-7.2-16-16v-28c0-8.8 7.2-16 16-16h28.118c8.8 0 16 7.2 16 16v28c0 8.8-7.2 16-16 16h-28.118zM598 138c-8.8 0-16-7.2-16-16V94c0-8.8 7.2-16 16-16h147.941c8.8 0 16 7.2 16 16v28c0 8.8-7.2 16-16 16H598zM958.06 258c-8.8 0-16-7.2-16-16v-28c0-8.8 7.2-16 16-16h27.82c8.8 0 16 7.2 16 16v28c0 8.8-7.2 16-16 16h-27.82zM958.06 378c-8.8 0-16-7.2-16-16v-28c0-8.8 7.2-16 16-16h27.82c8.8 0 16 7.2 16 16v28c0 8.8-7.2 16-16 16h-27.82zM837.941 498c-8.8 0-16-7.2-16-16v-28c0-8.8 7.2-16 16-16H985.88c8.8 0 16 7.2 16 16v28c0 8.8-7.2 16-16 16H837.941zM358.06 138c-8.8 0-16-7.2-16-16V94c0-8.8 7.2-16 16-16h27.82c8.8 0 16 7.2 16 16v28c0 8.8-7.2 16-16 16h-27.82zM118 378c-8.8 0-16-7.2-16-16v-28c0-8.8 7.2-16 16-16h27.94c8.8 0 16 7.2 16 16v28c0 8.8-7.2 16-16 16H118zM237.94 138c-8.8 0-16-7.2-16-16V94c0-8.8 7.2-16 16-16h28.119c8.8 0 16 7.2 16 16v28c0 8.8-7.2 16-16 16H237.94zM118.12 138c-8.8 0-16-7.2-16-16V94c0-8.8 7.2-16 16-16h27.82c8.8 0 16 7.2 16 16v28c0 8.8-7.2 16-16 16h-27.82z"/>
  <g>
    <path fill="none" stroke="#4A44F2" stroke-width="8" stroke-miterlimit="10" d="M225.94 510c-8.8 0-16-7.2-16-16v-28c0-8.8 7.2-16 16-16h28.119c8.8 0 16 7.2 16 16v28c0 8.8-7.2 16-16 16H225.94zM225.94 270c-8.8 0-16-7.2-16-16v-28c0-8.8 7.2-16 16-16h147.94c8.8 0 16 7.2 16 16v28c0 8.8-7.2 16-16 16H225.94zM706.12 510c-8.8 0-16-7.2-16-16v-28c0-8.8 7.2-16 16-16h27.821c8.8 0 16 7.2 16 16v28c0 8.8-7.2 16-16 16H706.12zM106.12 510c-8.8 0-16-7.2-16-16v-28c0-8.8 7.2-16 16-16h27.82c8.8 0 16 7.2 16 16v28c0 8.8-7.2 16-16 16h-27.82zM465.88 270c-8.8 0-16-7.2-16-16v-28c0-8.8 7.2-16 16-16H494c8.8 0 16 7.2 16 16v28c0 8.8-7.2 16-16 16h-28.12zM706.12 390c-8.8 0-16-7.2-16-16v-28c0-8.8 7.2-16 16-16h27.821c8.8 0 16 7.2 16 16v28c0 8.8-7.2 16-16 16H706.12zM706.12 270c-8.8 0-16-7.2-16-16v-28c0-8.8 7.2-16 16-16h27.821c8.8 0 16 7.2 16 16v28c0 8.8-7.2 16-16 16H706.12zM586 270c-8.8 0-16-7.2-16-16v-28c0-8.8 7.2-16 16-16h28.12c8.8 0 16 7.2 16 16v28c0 8.8-7.2 16-16 16H586zM225.94 390c-8.8 0-16-7.2-16-16v-28c0-8.8 7.2-16 16-16h28.119c8.8 0 16 7.2 16 16v28c0 8.8-7.2 16-16 16H225.94zM586 510c-8.8 0-16-7.2-16-16v-28c0-8.8 7.2-16 16-16h28.12c8.8 0 16 7.2 16 16v28c0 8.8-7.2 16-16 16H586zM465.88 510c-8.8 0-16-7.2-16-16v-28c0-8.8 7.2-16 16-16H494c8.8 0 16 7.2 16 16v28c0 8.8-7.2 16-16 16h-28.12zM586 390c-8.8 0-16-7.2-16-16v-28c0-8.8 7.2-16 16-16h28.12c8.8 0 16 7.2 16 16v28c0 8.8-7.2 16-16 16H586zM106.12 270c-8.8 0-16-7.2-16-16v-28c0-8.8 7.2-16 16-16h27.82c8.8 0 16 7.2 16 16v28c0 8.8-7.2 16-16 16h-27.82zM465.88 390c-8.8 0-16-7.2-16-16v-28c0-8.8 7.2-16 16-16H494c8.8 0 16 7.2 16 16v28c0 8.8-7.2 16-16 16h-28.12zM825.941 390c-8.8 0-16-7.2-16-16v-28c0-8.8 7.2-16 16-16h28.118c8.8 0 16 7.2 16 16v28c0 8.8-7.2 16-16 16h-28.118zM346.06 510c-8.8 0-16-7.2-16-16v-28c0-8.8 7.2-16 16-16h27.82c8.8 0 16 7.2 16 16v28c0 8.8-7.2 16-16 16h-27.82zM346.06 390c-8.8 0-16-7.2-16-16v-28c0-8.8 7.2-16 16-16h27.82c8.8 0 16 7.2 16 16v28c0 8.8-7.2 16-16 16h-27.82zM946.06 150c-8.8 0-16-7.2-16-16v-28c0-8.8 7.2-16 16-16H974c8.8 0 16 7.2 16 16v28c0 8.8-7.2 16-16 16h-27.94zM465.88 150c-8.8 0-16-7.2-16-16v-28c0-8.8 7.2-16 16-16H494c8.8 0 16 7.2 16 16v28c0 8.8-7.2 16-16 16h-28.12zM825.941 150c-8.8 0-16-7.2-16-16v-28c0-8.8 7.2-16 16-16h28.118c8.8 0 16 7.2 16 16v28c0 8.8-7.2 16-16 16h-28.118zM825.941 270c-8.8 0-16-7.2-16-16v-28c0-8.8 7.2-16 16-16h28.118c8.8 0 16 7.2 16 16v28c0 8.8-7.2 16-16 16h-28.118zM586 150c-8.8 0-16-7.2-16-16v-28c0-8.8 7.2-16 16-16h147.941c8.8 0 16 7.2 16 16v28c0 8.8-7.2 16-16 16H586zM946.06 270c-8.8 0-16-7.2-16-16v-28c0-8.8 7.2-16 16-16h27.82c8.8 0 16 7.2 16 16v28c0 8.8-7.2 16-16 16h-27.82zM946.06 390c-8.8 0-16-7.2-16-16v-28c0-8.8 7.2-16 16-16h27.82c8.8 0 16 7.2 16 16v28c0 8.8-7.2 16-16 16h-27.82zM825.941 510c-8.8 0-16-7.2-16-16v-28c0-8.8 7.2-16 16-16H973.88c8.8 0 16 7.2 16 16v28c0 8.8-7.2 16-16 16H825.941zM346.06 150c-8.8 0-16-7.2-16-16v-28c0-8.8 7.2-16 16-16h27.82c8.8 0 16 7.2 16 16v28c0 8.8-7.2 16-16 16h-27.82zM106 390c-8.8 0-16-7.2-16-16v-28c0-8.8 7.2-16 16-16h27.94c8.8 0 16 7.2 16 16v28c0 8.8-7.2 16-16 16H106zM225.94 150c-8.8 0-16-7.2-16-16v-28c0-8.8 7.2-16 16-16h28.119c8.8 0 16 7.2 16 16v28c0 8.8-7.2 16-16 16H225.94zM106.12 150c-8.8 0-16-7.2-16-16v-28c0-8.8 7.2-16 16-16h27.82c8.8 0 16 7.2 16 16v28c0 8.8-7.2 16-16 16h-27.82z"/>
  </g>
  <g>
    <path fill="#EEE" d="M301.86 1005.116c-1.022 8.186-8.61 14.884-16.86 14.884H105c-8.25 0-15.838-6.698-16.86-14.884L61.86 794.884C60.837 786.698 66.75 780 75 780h240c8.25 0 14.162 6.698 13.14 14.884l-26.28 210.232z"/>
    <path fill="none" stroke="#96D926" stroke-width="4" stroke-linecap="round" stroke-miterlimit="10" d="M301.86 1005.116c-1.022 8.186-8.61 14.884-16.86 14.884H105c-8.25 0-15.838-6.698-16.86-14.884L61.86 794.884C60.837 786.698 66.75 780 75 780h240c8.25 0 14.162 6.698 13.14 14.884l-26.28 210.232z"/>
    <path fill="#EEE" stroke="#96D926" stroke-width="8" stroke-linecap="round" stroke-miterlimit="10" d="M60 780h270M90 1020h210"/>
  </g>
  <g>
    <path fill="#B0F235" d="M134.061 1000c-8.8 0-16-7.2-16-16v-28c0-8.8 7.2-16 16-16H282c8.8 0 16 7.2 16 16v28c0 8.8-7.2 16-16 16H134.061zM148 940c-8.8 0-16-7.2-16-16v-28c0-8.8 7.2-16 16-16h147.939c8.8 0 16 7.2 16 16v28c0 8.8-7.2 16-16 16H148zM181.148 782.843c-7.87 3.937-17.53.718-21.467-7.153l-12.524-25.043c-3.937-7.87-.718-17.53 7.153-21.467l132.314-66.173c7.87-3.937 17.53-.718 21.467 7.153l12.524 25.043c3.937 7.87.718 17.53-7.153 21.467l-132.314 66.173zM125.88 880c-8.8 0-16-7.2-16-16v-28c0-8.8 7.2-16 16-16H154c8.8 0 16 7.2 16 16v28c0 8.8-7.2 16-16 16h-28.12zM186 880c-8.8 0-16-7.2-16-16v-28c0-8.8 7.2-16 16-16h28.12c8.8 0 16 7.2 16 16v28c0 8.8-7.2 16-16 16H186z"/>
  </g>
  <g>
    <path fill="none" stroke="#4A44F2" stroke-width="8" stroke-linecap="round" stroke-miterlimit="10" d="M122.061 1012c-8.8 0-16-7.2-16-16v-28c0-8.8 7.2-16 16-16H270c8.8 0 16 7.2 16 16v28c0 8.8-7.2 16-16 16H122.061zM136 952c-8.8 0-16-7.2-16-16v-28c0-8.8 7.2-16 16-16h147.939c8.8 0 16 7.2 16 16v28c0 8.8-7.2 16-16 16H136zM169.148 794.843c-7.87 3.937-17.53.718-21.467-7.153l-12.524-25.043c-3.937-7.87-.718-17.53 7.153-21.467l132.314-66.173c7.87-3.937 17.53-.718 21.467 7.153l12.524 25.043c3.937 7.87.718 17.53-7.153 21.467l-132.314 66.173zM113.88 892c-8.8 0-16-7.2-16-16v-28c0-8.8 7.2-16 16-16H142c8.8 0 16 7.2 16 16v28c0 8.8-7.2 16-16 16h-28.12zM174 892c-8.8 0-16-7.2-16-16v-28c0-8.8 7.2-16 16-16h28.12c8.8 0 16 7.2 16 16v28c0 8.8-7.2 16-16 16H174z"/>
  </g>
  <g>
    <path fill="none" stroke="#3726A6" stroke-width="60" stroke-linecap="round" stroke-miterlimit="10" d="M540 510v180M630 990V863.333c0-33-20.25-72-45-86.667-24.75-14.666-65.25-14.666-90 0-24.75 14.667-45 53.667-45 86.667V990M450 510l-72 54c-26.4 19.8-61.5 56.25-78 81l-30 45M630 420l66.334-33.167C725.851 372.075 763.5 339.75 780 315l30-45"/>
    <circle fill="#4A44F2" cx="540" cy="405" r="45"/>
  </g>
  <g>
    <path fill="none" stroke="#96D926" stroke-width="16" stroke-miterlimit="10" d="M434.532 1020V780h210v240"/>
    <path fill="#EEE" d="M434.532 780V600c0-16.5 13.5-30 30-30h150c16.5 0 30 13.5 30 30v180"/>
    <path fill="none" stroke="#96D926" stroke-width="16" stroke-miterlimit="10" d="M434.532 780V600c0-16.5 13.5-30 30-30h150c16.5 0 30 13.5 30 30v180"/>
    <path fill="none" stroke="#96D926" stroke-width="32" stroke-linecap="round" stroke-miterlimit="10" d="M420 780h240"/>
  </g>
</svg>
